<svg width="283" height="213" viewBox="0 0 283 213" fill="none" xmlns="http://www.w3.org/2000/svg">
<path fill-rule="evenodd" clip-rule="evenodd" d="M160.259 95.6251C158.805 96.6266 156.895 96.6269 155.442 95.6251C153.169 94.0594 150.384 93.1361 147.385 93.1361C139.749 93.1361 133.536 99.1145 133.536 106.463V124.636C133.536 126.448 134.903 128.037 136.711 128.146C138.675 128.264 140.304 126.706 140.304 124.768V106.463C140.304 102.847 143.48 99.9041 147.385 99.9041C151.29 99.9041 154.466 102.847 154.466 106.463V124.636C154.466 126.448 155.833 128.037 157.642 128.146C159.605 128.264 161.234 126.706 161.234 124.768V106.463C161.234 102.847 164.411 99.9041 168.315 99.9041C172.22 99.9041 175.397 102.847 175.397 106.463V124.636C175.397 126.448 176.763 128.037 178.572 128.146C180.535 128.264 182.164 126.706 182.164 124.768V106.463C182.164 99.1145 175.952 93.1361 168.315 93.1361C165.316 93.1361 162.531 94.0594 160.259 95.6251Z" fill="url(#paint0_linear_48_446)"/>
<path fill-rule="evenodd" clip-rule="evenodd" d="M82.8192 128.64C70.7022 128.64 60.845 118.784 60.845 106.667C60.845 94.5494 70.7022 84.6925 82.8192 84.6925C94.9359 84.6925 104.793 94.5494 104.793 106.667C104.793 118.784 94.9359 128.64 82.8192 128.64ZM82.8192 91.4604C74.4343 91.4604 67.6133 98.2818 67.6133 106.667C67.6133 115.051 74.4343 121.872 82.8192 121.872C91.2038 121.872 98.0252 115.051 98.0252 106.667C98.0252 98.2818 91.2038 91.4604 82.8192 91.4604Z" fill="url(#paint1_linear_48_446)"/>
<path fill-rule="evenodd" clip-rule="evenodd" d="M203.921 128.641C194.061 128.641 186.04 120.619 186.04 110.76C186.04 100.9 194.061 92.8794 203.921 92.8794C213.78 92.8794 221.801 100.9 221.801 110.76C221.801 120.619 213.78 128.641 203.921 128.641ZM203.921 99.647C197.793 99.647 192.808 104.632 192.808 110.76C192.808 116.888 197.793 121.873 203.921 121.873C210.048 121.873 215.033 116.888 215.033 110.76C215.033 104.632 210.048 99.647 203.921 99.647Z" fill="url(#paint2_linear_48_446)"/>
<path fill-rule="evenodd" clip-rule="evenodd" d="M108.27 102.184C108.27 107.104 111.891 110.998 117.497 112.106C121.948 112.986 122.882 115.254 122.882 117.002C122.882 119.418 120.916 121.384 118.5 121.384H108.626C106.756 121.384 105.242 122.899 105.242 124.768C105.242 126.637 106.756 128.152 108.626 128.152H118.5C124.648 128.152 129.65 123.15 129.65 117.002C129.65 111.121 125.598 106.809 118.809 105.467C117.401 105.188 115.038 104.392 115.038 102.184C115.038 100.658 116.28 99.4149 117.807 99.4149C118.15 99.4149 118.483 99.4765 118.798 99.5971C120.543 100.267 122.5 99.3948 123.169 97.6501C123.839 95.9043 122.967 93.9474 121.222 93.2781C120.131 92.8596 118.982 92.647 117.807 92.647C112.548 92.6466 108.27 96.9252 108.27 102.184Z" fill="url(#paint3_linear_48_446)"/>
<defs>
<linearGradient id="paint0_linear_48_446" x1="182.15" y1="110.679" x2="133.526" y2="110.679" gradientUnits="userSpaceOnUse">
<stop stop-color="#FEC314"/>
<stop offset="1" stop-color="#FEDD00"/>
</linearGradient>
<linearGradient id="paint1_linear_48_446" x1="60.7357" y1="106.665" x2="104.787" y2="106.665" gradientUnits="userSpaceOnUse">
<stop stop-color="#E71E25"/>
<stop offset="1" stop-color="#DC1F26"/>
</linearGradient>
<linearGradient id="paint2_linear_48_446" x1="221.621" y1="110.748" x2="185.859" y2="110.748" gradientUnits="userSpaceOnUse">
<stop stop-color="#198FCF"/>
<stop offset="1" stop-color="#2CABE2"/>
</linearGradient>
<linearGradient id="paint3_linear_48_446" x1="129.477" y1="110.398" x2="105.547" y2="110.398" gradientUnits="userSpaceOnUse">
<stop stop-color="#F26222"/>
<stop offset="1" stop-color="#F68A22"/>
</linearGradient>
</defs>
</svg>
