<svg width="283" height="213" viewBox="0 0 283 213" fill="none" xmlns="http://www.w3.org/2000/svg">
<path d="M118.509 120.154H116.353C115.786 120.154 115.466 119.799 115.466 119.195V98.7182H108.865C108.298 98.7182 107.98 98.5039 107.98 97.9361V95.8376C107.98 95.1623 108.298 94.9851 108.865 94.9851H125.961C126.527 94.9851 126.881 95.1623 126.881 95.8376V97.9361C126.881 98.5039 126.563 98.7182 125.961 98.7182H119.393V119.195C119.393 119.834 119.039 120.154 118.509 120.154ZM129.997 120.125H127.697C127.165 120.125 126.883 119.77 126.883 119.201V103.203C126.883 102.564 127.201 102.172 127.838 102.172H129.891C130.458 102.172 130.706 102.351 130.74 102.919L130.812 103.524C131.519 102.6 133.361 101.818 135.307 101.818C135.839 101.818 136.263 101.852 136.688 101.959C137.042 102.031 137.254 102.387 137.254 102.849C137.254 103.346 137.184 104.484 137.077 104.981C137.006 105.372 136.688 105.515 136.299 105.515C135.839 105.515 135.06 105.443 134.634 105.443C133.324 105.443 132.192 105.728 131.591 105.977C131.378 106.084 131.059 106.297 130.953 106.474C130.883 106.617 130.812 106.83 130.812 107.186V119.201C130.812 119.77 130.564 120.125 129.997 120.125ZM145.707 120.506C142.344 120.506 140.999 119.616 140.469 118.195C140.15 117.305 140.115 115.99 140.115 114.674V103.121C140.115 102.588 140.292 102.197 140.929 102.197H143.229C143.796 102.197 144.044 102.552 144.044 103.121V113.679C144.044 114.355 144.114 115.208 144.256 115.635C144.539 116.488 145.283 116.878 147.052 116.878C148.751 116.878 149.955 116.595 150.592 116.31C150.804 116.239 151.158 116.096 151.335 115.848C151.477 115.67 151.513 115.457 151.513 114.852V103.121C151.513 102.588 151.795 102.197 152.362 102.197H154.627C155.158 102.197 155.441 102.517 155.441 103.121V119.083C155.441 119.723 155.158 120.113 154.521 120.113H152.503C151.831 120.113 151.653 119.865 151.583 119.332L151.547 118.798C150.38 119.936 147.902 120.506 145.707 120.506ZM182.487 119.547C182.451 120.044 182.133 120.116 181.461 120.116H180.009C179.337 120.116 179.054 119.903 179.054 119.049V95.9802C179.054 95.3406 179.372 94.9851 179.903 94.9851H182.169C182.841 94.9851 182.983 95.3049 182.983 95.9802V103.303C184.221 102.343 186.345 101.811 188.717 101.811C192.929 101.811 195.124 104.228 195.124 110.769C195.124 118.661 192.363 120.545 186.771 120.545C185.284 120.545 183.195 119.833 182.523 119.194L182.487 119.547ZM201.45 120.114H199.149C198.617 120.114 198.335 119.831 198.335 119.19V103.122C198.335 102.589 198.547 102.197 199.149 102.197H201.485C202.122 102.197 202.264 102.553 202.264 103.086V119.19C202.264 119.759 201.98 120.114 201.45 120.114ZM200.257 99.748C198.877 99.748 197.957 99.1806 197.957 97.4019C197.957 95.6965 198.877 94.9851 200.257 94.9851C201.674 94.9851 202.557 95.5897 202.557 97.3673C202.557 99.038 201.814 99.748 200.257 99.748ZM210.145 120.12H207.844C207.312 120.12 207.03 119.837 207.03 119.196V95.9095C207.03 95.3406 207.242 94.9851 207.879 94.9851H210.181C210.817 94.9851 210.959 95.306 210.959 95.8748V119.196C210.959 119.765 210.675 120.12 210.145 120.12ZM219.218 120.12H216.918C216.386 120.12 216.103 119.837 216.103 119.196V95.9095C216.103 95.3406 216.315 94.9851 216.952 94.9851H219.254C219.891 94.9851 220.032 95.306 220.032 95.8748V119.196C220.032 119.765 219.749 120.12 219.218 120.12ZM167.997 117.033C169.979 117.033 171.608 116.677 172.775 116.357C173.023 116.285 173.412 116.143 173.696 116.143C174.014 116.143 174.192 116.357 174.298 116.641C174.474 117.174 174.758 118.205 174.758 118.561C174.758 118.987 174.616 119.166 174.192 119.379C172.527 120.161 169.731 120.552 167.679 120.552C161.378 120.552 159.395 117.673 159.395 111.273C159.395 104.484 162.121 101.818 167.749 101.818C174.298 101.818 175.077 105.586 175.077 111.06C175.077 111.629 174.971 112.055 174.722 112.269C174.545 112.411 174.262 112.482 173.908 112.482H163.36C163.431 116.215 164.988 117.033 167.997 117.033ZM171.011 109.334C171.046 109.121 171.046 108.907 171.046 108.622C171.046 106.169 170.584 104.854 167.503 104.854C164.318 104.854 163.246 106.348 163.176 109.334H171.011ZM186.126 117.025C190.161 117.025 191.01 115.674 191.01 111.159C191.01 107.071 190.302 105.614 187.152 105.614C185.949 105.614 184.285 105.791 183.4 106.36C183.188 106.502 183.011 106.645 182.941 106.858C182.869 106.999 182.835 107.284 182.835 107.568V116.384C183.4 116.705 185.029 117.025 186.126 117.025Z" fill="#323333"/>
<path fill-rule="evenodd" clip-rule="evenodd" d="M103.494 106.754C103.494 95.0675 94.2235 87.7725 83.3517 87.7725C82.3796 87.7725 81.429 87.8096 80.4477 87.8945C79.7943 87.9522 79.7133 88.8744 80.3441 89.0502C84.2746 90.1451 87.4587 92.4674 89.6848 95.429C92.2513 98.8448 93.1219 102.698 93.1611 106.481C93.1622 106.633 93.285 106.756 93.4378 106.756L95.4198 106.754C95.9204 106.754 96.1995 107.335 95.8861 107.727L91.0684 113.75C90.831 114.048 90.3778 114.048 90.1394 113.75L85.3203 107.725C85.0079 107.333 85.2856 106.753 85.7855 106.753H88.1241C88.279 106.753 88.4053 106.626 88.4043 106.472C88.3601 102.704 87.4226 99.9422 85.4374 97.5993C83.0032 94.7261 79.47 93.0016 75.469 93.0016C70.94 93.0016 62.6138 96.0495 62.6138 106.753C62.6138 118.441 71.9082 125.732 82.7849 125.732C83.7425 125.732 84.68 125.697 85.6461 125.614C86.3076 125.558 86.39 124.626 85.7508 124.446C81.8394 123.347 78.6698 121.03 76.4518 118.079C73.8842 114.664 73.0147 110.811 72.9755 107.027C72.973 106.874 72.8502 106.752 72.6988 106.752L70.7168 106.753C70.2159 106.753 69.9371 106.172 70.2505 105.781L75.0672 99.7575C75.3056 99.4607 75.7577 99.4607 75.9961 99.7575L80.8149 105.784C81.1287 106.175 80.8496 106.754 80.3501 106.754H78.0125C77.8576 106.754 77.7313 106.881 77.7323 107.036C77.7766 110.804 78.714 113.565 80.6992 115.908C83.1334 118.781 86.6656 120.507 90.6676 120.507C95.4878 120.507 103.494 117.265 103.494 106.754Z" fill="url(#paint0_linear_48_452)"/>
<defs>
<linearGradient id="paint0_linear_48_452" x1="83.0541" y1="125.732" x2="83.0541" y2="87.7725" gradientUnits="userSpaceOnUse">
<stop stop-color="#1DBBCB"/>
<stop offset="1" stop-color="#349AD7"/>
</linearGradient>
</defs>
</svg>
