<svg width="283" height="213" viewBox="0 0 283 213" fill="none" xmlns="http://www.w3.org/2000/svg">
<path d="M187.442 111.47C187.442 112.499 187.947 113.314 189.358 113.314C191.018 113.314 192.788 112.143 192.894 109.487C192.119 109.364 191.337 109.295 190.552 109.277C188.886 109.275 187.442 109.736 187.442 111.47Z" fill="black"/>
<mask id="mask0_48_424" style="mask-type:alpha" maskUnits="userSpaceOnUse" x="79" y="86" width="125" height="41">
<path d="M79.5938 86.5649H203.406V126.373H79.5938V86.5649Z" fill="white"/>
</mask>
<g mask="url(#mask0_48_424)">
<path d="M196.408 116.95C194.232 116.95 193.036 115.675 192.817 113.676C191.874 115.349 190.204 116.95 187.557 116.95C185.203 116.95 182.515 115.675 182.515 112.257C182.515 108.22 186.397 107.276 190.134 107.276C191.031 107.268 191.928 107.317 192.82 107.422V106.877C192.82 105.203 192.783 103.203 190.134 103.203C189.154 103.203 188.392 103.276 187.63 103.675L187.024 106.003L183.288 105.602L184.013 101.347C186.879 100.183 188.33 99.8458 191.015 99.8458C194.536 99.8458 197.511 101.665 197.511 105.411V112.54C197.511 113.487 197.872 113.815 198.636 113.815C198.87 113.811 199.102 113.775 199.325 113.706L199.361 116.179C198.457 116.673 197.445 116.939 196.415 116.952L196.408 116.95ZM172.029 116.587L179.106 91.5723H183.714L176.643 116.587H172.029ZM162.523 116.587L169.604 91.5723H174.212L167.137 116.587H162.523ZM151.104 116.587H136.808L136.337 114.113L145.325 103.746H140.211L139.485 106.293L136.11 105.93L136.69 100.183H151.071L151.433 102.656L142.359 113.028H147.647L148.409 110.481L152.109 110.844L151.104 116.587ZM125.055 116.95C120.013 116.95 116.529 113.858 116.529 108.621C116.529 103.819 119.431 99.8539 125.303 99.8539C131.175 99.8539 134.047 103.819 134.047 108.402C134.051 113.641 130.279 116.952 125.055 116.952V116.95ZM114.644 116.587H107.795V107.348C107.795 104.512 106.852 103.42 105.003 103.42C102.753 103.42 101.846 105.02 101.846 107.312V113.028H104.012V116.592H97.1634V107.348C97.1634 104.512 96.2218 103.42 94.371 103.42C92.1218 103.42 91.2141 105.02 91.2141 107.312V113.028H94.326V116.592H84.3489V113.028H86.5255V103.748H84.1713V100.185H91.2056V102.656C92.1858 100.912 93.8916 99.8564 96.1751 99.8564C98.5289 99.8564 100.71 100.985 101.508 103.386C102.415 101.204 104.264 99.8564 106.841 99.8564C109.779 99.8564 112.465 101.639 112.465 105.531V113.028H114.642L114.644 116.587ZM79.5938 126.373H203.407V86.5649H79.5938V126.373Z" fill="black"/>
<path fill-rule="evenodd" clip-rule="evenodd" d="M155.056 106.074H159.955V100.184H155.056V106.074Z" fill="white"/>
<path fill-rule="evenodd" clip-rule="evenodd" d="M155.056 116.587H159.955V110.695H155.056V116.587Z" fill="white"/>
</g>
<path d="M125.165 103.341C122.787 103.341 121.311 105.136 121.311 108.255C121.311 111.114 122.607 113.314 125.135 113.314C127.548 113.314 129.133 111.335 129.133 108.181C129.127 104.844 127.363 103.341 125.165 103.341Z" fill="black"/>
</svg>
