<svg width="283" height="213" viewBox="0 0 283 213" fill="none" xmlns="http://www.w3.org/2000/svg">
<path d="M110.677 124.578C108.307 124.578 105.936 123.662 104.295 122.012C101.925 119.63 101.925 117.064 101.925 112.849C101.925 108.634 101.925 105.885 104.295 103.502C105.936 101.853 108.307 100.937 110.677 100.937C115.236 100.753 119.066 104.052 119.43 108.451H114.689C114.325 106.435 112.684 104.969 110.677 104.969C109.583 104.969 108.489 105.335 107.76 106.251C106.848 107.351 106.483 108.084 106.483 112.849C106.483 117.614 106.848 118.164 107.76 119.08C108.489 119.997 109.583 120.363 110.677 120.363C112.684 120.363 114.507 118.897 114.689 116.881H119.43C118.883 121.279 115.054 124.761 110.677 124.578Z" fill="#435363"/>
<path d="M185.623 122.929C184.529 124.028 182.888 124.578 181.429 124.578C179.788 124.762 178.147 124.028 177.053 122.746V124.395H172.859V101.303H177.235V108.267C178.329 106.985 179.788 106.434 181.429 106.434C183.07 106.434 184.529 106.985 185.623 108.084C187.446 109.917 187.446 112.849 187.446 115.415C187.446 117.981 187.264 121.096 185.623 122.929ZM180.152 110.467C177.599 110.467 177.235 112.666 177.235 115.598C177.235 118.53 177.417 120.546 179.97 120.546C182.523 120.546 182.888 118.347 182.888 115.415C182.888 112.483 182.523 110.467 180.152 110.467Z" fill="#435363"/>
<path d="M202.399 105.152V101.12H206.775V105.152H202.399ZM202.399 124.211V106.618H206.775V124.211H202.399Z" fill="#435363"/>
<path d="M216.44 124.211C213.887 124.395 211.516 122.379 211.334 119.813C211.334 119.63 211.334 119.446 211.334 119.263V110.1H209.51V106.801H211.334V101.12H215.71V106.801H218.81V110.1H215.71V119.08C215.71 119.997 216.258 120.73 217.169 120.73H218.81V124.395L216.44 124.211Z" fill="#435363"/>
<path d="M134.383 116.881H136.753C136.753 116.514 136.753 115.965 136.753 115.415C136.753 112.299 136.389 110.283 134.748 108.634C133.289 107.168 131.283 106.435 129.095 106.435C127.089 106.435 125.083 107.168 123.442 108.634C121.801 110.283 121.436 112.299 121.436 115.415C121.436 118.53 121.801 120.546 123.442 122.379C124.901 123.845 126.907 124.578 129.095 124.578C131.283 124.761 133.289 123.845 134.748 122.379C135.659 121.463 136.207 120.546 136.389 119.263H132.012C131.83 119.447 131.648 119.813 131.465 119.997C130.736 120.546 130.007 120.913 129.095 120.913C128.183 120.913 127.454 120.73 126.907 119.997C126.177 119.08 125.813 117.981 125.813 116.881H134.383ZM128.913 110.1C129.824 110.1 130.554 110.283 131.283 110.833C132.012 111.566 132.377 112.666 132.377 113.765H125.63C125.63 112.666 125.995 111.749 126.724 110.833C127.454 110.467 128.183 110.1 128.913 110.1Z" fill="#435363"/>
<path d="M167.753 116.881H169.941C169.941 116.514 169.941 115.965 169.941 115.415C169.941 112.299 169.576 110.283 167.935 108.634C166.476 107.168 164.47 106.435 162.282 106.435C160.276 106.435 158.271 107.168 156.63 108.634C154.989 110.283 154.624 112.299 154.624 115.415C154.624 118.53 154.989 120.546 156.63 122.379C158.088 123.845 160.094 124.578 162.282 124.578C164.288 124.761 166.476 123.845 167.935 122.379C168.847 121.463 169.394 120.546 169.576 119.263H165.2C165.018 119.447 164.835 119.813 164.653 119.997C163.924 120.546 163.194 120.913 162.282 120.913C161.37 120.913 160.641 120.73 160.094 119.997C159.365 119.08 159 117.981 159 116.881H167.753ZM162.282 110.1C163.194 110.1 163.924 110.283 164.653 110.833C165.382 111.566 165.747 112.666 165.747 113.765H159C159 112.666 159.365 111.749 160.094 110.833C160.641 110.467 161.553 110.1 162.282 110.1Z" fill="#435363"/>
<path d="M233.763 116.881H235.951C235.951 116.514 235.951 115.965 235.951 115.415C235.951 112.299 235.587 110.283 233.946 108.634C232.487 107.168 230.481 106.435 228.293 106.435C226.287 106.435 224.281 107.168 222.64 108.634C220.999 110.283 220.634 112.299 220.634 115.415C220.634 118.53 220.999 120.546 222.64 122.379C224.099 123.845 226.104 124.578 228.293 124.578C230.481 124.761 232.487 123.845 233.946 122.379C234.857 121.463 235.404 120.546 235.587 119.263H231.21C231.028 119.447 230.846 119.813 230.663 119.997C229.934 120.546 229.204 120.913 228.293 120.913C227.381 120.913 226.652 120.73 226.104 119.997C225.375 119.08 225.01 117.981 225.01 116.881H233.763ZM228.293 110.1C229.204 110.1 229.934 110.283 230.663 110.833C231.393 111.566 231.757 112.666 231.757 113.765H225.01C225.01 112.666 225.375 111.749 226.104 110.833C226.834 110.467 227.563 110.1 228.293 110.1Z" fill="#435363"/>
<path d="M143.865 101.303H139.489V124.395H143.865V101.303Z" fill="#435363"/>
<path d="M152.071 101.303H147.695V124.395H152.071V101.303Z" fill="#435363"/>
<path d="M200.029 106.251C198.752 106.251 197.658 106.618 196.564 107.351C195.835 108.084 195.287 108.817 194.74 109.734V106.618H190.182V124.212H194.923V115.598C194.923 114.682 195.105 113.582 195.47 112.666C196.199 111.383 197.84 110.65 199.299 110.833H200.029V106.251Z" fill="#435363"/>
<path d="M76.5784 110.833C77.686 110.833 78.5842 109.931 78.5842 108.817C78.5842 107.704 77.686 106.801 76.5784 106.801C75.4704 106.801 74.5726 107.704 74.5726 108.817C74.5726 109.931 75.4704 110.833 76.5784 110.833Z" fill="#435363"/>
<path d="M63.4492 124.762C65.3627 124.762 66.9139 123.203 66.9139 121.279C66.9139 119.356 65.3627 117.797 63.4492 117.797C61.5358 117.797 59.9846 119.356 59.9846 121.279C59.9846 123.203 61.5358 124.762 63.4492 124.762Z" fill="#435363"/>
<path d="M51.0493 111.749C52.9628 111.749 54.514 110.19 54.514 108.267C54.514 106.344 52.9628 104.785 51.0493 104.785C49.1359 104.785 47.5847 106.344 47.5847 108.267C47.5847 110.19 49.1359 111.749 51.0493 111.749Z" fill="#435363"/>
<path d="M63.2668 97.6378C64.4752 97.6378 65.4551 96.6529 65.4551 95.4385C65.4551 94.2237 64.4752 93.2393 63.2668 93.2393C62.0584 93.2393 61.0785 94.2237 61.0785 95.4385C61.0785 96.6529 62.0584 97.6378 63.2668 97.6378Z" fill="#435363"/>
<path d="M72.9313 101.12C73.9384 101.12 74.7548 100.299 74.7548 99.287C74.7548 98.2749 73.9384 97.4546 72.9313 97.4546C71.9241 97.4546 71.108 98.2749 71.108 99.287C71.108 100.299 71.9241 101.12 72.9313 101.12Z" fill="#435363"/>
<path d="M54.1496 102.403C55.6601 102.403 56.8848 101.172 56.8848 99.6539C56.8848 98.1356 55.6601 96.9049 54.1496 96.9049C52.6387 96.9049 51.4141 98.1356 51.4141 99.6539C51.4141 101.172 52.6387 102.403 54.1496 102.403Z" fill="#435363"/>
<path d="M54.514 121.096C56.5282 121.096 58.1612 119.455 58.1612 117.43C58.1612 115.406 56.5282 113.765 54.514 113.765C52.5001 113.765 50.8672 115.406 50.8672 117.43C50.8672 119.455 52.5001 121.096 54.514 121.096Z" fill="#435363"/>
<path d="M72.3844 120.73C73.8949 120.73 75.1196 119.499 75.1196 117.981C75.1196 116.462 73.8949 115.232 72.3844 115.232C70.8739 115.232 69.6492 116.462 69.6492 117.981C69.6492 119.499 70.8739 120.73 72.3844 120.73Z" fill="#435363"/>
<path d="M84.784 94.7056L88.6133 93.4226L84.784 91.9563L83.3251 87.7413L81.8666 91.773L77.8547 93.4226L81.8666 94.8889L83.3251 98.7373L84.784 94.7056Z" fill="#E75300"/>
<path d="M110.495 124.578C107.942 124.578 105.754 123.662 104.113 122.012C101.742 119.63 101.742 117.064 101.742 112.849C101.742 108.634 101.742 105.885 104.113 103.502C105.754 101.853 107.942 100.937 110.495 100.937C115.054 100.937 118.519 103.502 119.248 108.634H114.507C113.96 106.618 112.866 105.152 110.495 105.152C109.219 105.152 108.125 105.702 107.395 106.435C106.484 107.534 106.301 108.451 106.301 113.032C106.301 117.614 106.484 118.347 107.395 119.263C108.125 119.997 109.036 120.546 110.495 120.546C112.866 120.546 114.142 119.08 114.507 117.064H119.248C118.519 122.012 114.872 124.578 110.495 124.578Z" fill="#121E28"/>
<path d="M185.441 122.929C184.347 124.028 182.888 124.578 181.247 124.578C179.423 124.578 178.147 124.028 176.87 122.746V124.211H172.676V101.303H176.87V108.267C177.964 106.985 179.423 106.434 181.064 106.434C182.706 106.434 184.347 106.985 185.258 108.084C187.082 109.917 187.082 112.849 187.082 115.415C187.082 117.981 187.264 121.096 185.441 122.929ZM179.788 110.467C177.235 110.467 176.87 112.666 176.87 115.598C176.87 118.53 177.235 120.73 179.788 120.73C182.341 120.73 182.706 118.53 182.706 115.598C182.888 112.666 182.523 110.467 179.788 110.467Z" fill="#121E28"/>
<path d="M202.217 105.152V101.12H206.775V105.152H202.217ZM202.217 124.212V106.618H206.593V124.212H202.217Z" fill="#121E28"/>
<path d="M216.258 124.212C212.61 124.212 211.152 121.646 211.152 119.08V109.917H209.328V106.618H211.152V101.12H215.528V106.801H218.628V110.1H215.528V119.08C215.528 120.18 216.075 120.73 217.169 120.73H218.81V124.395H216.258V124.212Z" fill="#121E28"/>
<path d="M134.383 116.881H136.571C136.571 116.331 136.571 115.965 136.571 115.415C136.571 112.299 136.206 110.283 134.565 108.634C133.471 107.534 131.648 106.435 128.912 106.435C126.359 106.435 124.354 107.534 123.26 108.634C121.619 110.283 121.254 112.299 121.254 115.415C121.254 118.53 121.619 120.546 123.26 122.196C124.354 123.295 126.177 124.395 128.912 124.395C131.465 124.395 133.471 123.295 134.565 122.196C135.477 121.279 136.024 120.363 136.206 119.08H131.83C131.648 119.263 131.465 119.63 131.283 119.813C130.736 120.363 130.007 120.546 128.912 120.546C127.818 120.546 127.271 120.18 126.542 119.813C125.813 119.08 125.448 117.981 125.448 116.698H132.195L134.383 116.881ZM128.912 110.1C130.007 110.1 130.736 110.467 131.283 110.833C132.012 111.566 132.377 112.483 132.377 113.765H125.63C125.63 112.666 125.995 111.566 126.724 110.833C127.089 110.467 128.001 110.1 128.912 110.1Z" fill="#121E28"/>
<path d="M167.57 116.881H169.759C169.759 116.331 169.759 115.965 169.759 115.415C169.759 112.299 169.394 110.283 167.753 108.634C166.659 107.534 164.835 106.435 162.1 106.435C159.547 106.435 157.541 107.534 156.447 108.634C154.806 110.283 154.441 112.299 154.441 115.415C154.441 118.53 154.806 120.546 156.447 122.196C157.541 123.295 159.365 124.395 162.1 124.395C164.653 124.395 166.659 123.295 167.753 122.196C168.665 121.279 169.212 120.363 169.394 119.08H165.018C164.835 119.263 164.653 119.63 164.47 119.813C163.924 120.363 163.194 120.546 162.283 120.546C161.371 120.546 160.641 120.18 159.912 119.813C159.182 119.08 158.818 117.981 158.818 116.698H165.565L167.57 116.881ZM162.1 110.1C163.194 110.1 163.924 110.467 164.47 110.833C165.2 111.566 165.565 112.483 165.565 113.765H158.635C158.635 112.666 159 111.566 159.729 110.833C160.459 110.467 161.188 110.1 162.1 110.1Z" fill="#121E28"/>
<path d="M233.763 116.881H235.951C235.951 116.331 235.951 115.965 235.951 115.415C235.951 112.299 235.587 110.283 233.946 108.634C232.851 107.534 231.028 106.435 228.293 106.435C225.74 106.435 223.734 107.534 222.64 108.634C220.999 110.283 220.634 112.299 220.634 115.415C220.634 118.53 220.999 120.546 222.64 122.196C223.734 123.295 225.557 124.395 228.293 124.395C230.846 124.395 232.851 123.295 233.946 122.196C234.857 121.279 235.404 120.363 235.587 119.08H231.21C231.028 119.263 230.846 119.63 230.663 119.813C230.116 120.363 229.387 120.546 228.293 120.546C227.198 120.546 226.652 120.18 225.922 119.813C225.193 119.08 224.828 117.981 224.828 116.698H231.575L233.763 116.881ZM228.293 110.1C229.387 110.1 230.116 110.467 230.663 110.833C231.393 111.566 231.757 112.483 231.757 113.765H225.011C225.011 112.666 225.375 111.566 226.104 110.833C226.652 110.467 227.381 110.1 228.293 110.1Z" fill="#121E28"/>
<path d="M143.683 101.303H139.306V124.395H143.683V101.303Z" fill="#121E28"/>
<path d="M151.888 101.303H147.512V124.395H151.888V101.303Z" fill="#121E28"/>
<path d="M199.846 106.251C198.387 106.251 197.293 106.618 196.382 107.351C195.835 107.901 195.287 108.634 194.558 109.917V106.801H190V124.212H194.74V115.598C194.74 114.132 194.923 113.582 195.287 112.849C195.835 111.566 197.293 111.016 199.117 111.016C199.299 111.016 199.481 111.016 199.664 111.016H199.846V106.251Z" fill="#121E28"/>
<path d="M76.3959 110.833C77.5038 110.833 78.402 109.931 78.402 108.817C78.402 107.704 77.5038 106.801 76.3959 106.801C75.2883 106.801 74.3901 107.704 74.3901 108.817C74.3901 109.931 75.2883 110.833 76.3959 110.833Z" fill="#121E28"/>
<path d="M63.2667 124.762C65.1802 124.762 66.7314 123.203 66.7314 121.279C66.7314 119.356 65.1802 117.797 63.2667 117.797C61.3533 117.797 59.8021 119.356 59.8021 121.279C59.8021 123.203 61.3533 124.762 63.2667 124.762Z" fill="#121E28"/>
<path d="M50.8671 111.749C52.7805 111.749 54.3317 110.19 54.3317 108.267C54.3317 106.344 52.7805 104.785 50.8671 104.785C48.9537 104.785 47.4025 106.344 47.4025 108.267C47.4025 110.19 48.9537 111.749 50.8671 111.749Z" fill="#121E28"/>
<path d="M63.2668 97.6378C64.4752 97.6378 65.4551 96.6529 65.4551 95.4385C65.4551 94.2237 64.4752 93.2393 63.2668 93.2393C62.0584 93.2393 61.0785 94.2237 61.0785 95.4385C61.0785 96.6529 62.0584 97.6378 63.2668 97.6378Z" fill="#121E28"/>
<path d="M72.5666 101.303C73.6745 101.303 74.5727 100.401 74.5727 99.287C74.5727 98.1738 73.6745 97.2714 72.5666 97.2714C71.459 97.2714 70.5608 98.1738 70.5608 99.287C70.5608 100.401 71.459 101.303 72.5666 101.303Z" fill="#121E28"/>
<path d="M53.967 102.403C55.4775 102.403 56.7022 101.172 56.7022 99.6539C56.7022 98.1356 55.4775 96.9049 53.967 96.9049C52.4565 96.9049 51.2318 98.1356 51.2318 99.6539C51.2318 101.172 52.4565 102.403 53.967 102.403Z" fill="#121E28"/>
<path d="M54.514 121.096C56.5282 121.096 58.1612 119.455 58.1612 117.43C58.1612 115.406 56.5282 113.765 54.514 113.765C52.5001 113.765 50.8672 115.406 50.8672 117.43C50.8672 119.455 52.5001 121.096 54.514 121.096Z" fill="#121E28"/>
<path d="M72.2018 120.73C73.7126 120.73 74.9369 119.499 74.9369 117.981C74.9369 116.462 73.7126 115.232 72.2018 115.232C70.6912 115.232 69.4666 116.462 69.4666 117.981C69.4666 119.499 70.6912 120.73 72.2018 120.73Z" fill="#121E28"/>
<path d="M84.6017 94.7056L88.4311 93.4226L84.6017 91.9563L83.1429 87.7413L81.684 91.773L77.6725 93.4226L81.684 94.8889L83.1429 98.7373L84.6017 94.7056Z" fill="#E75300"/>
</svg>
