<svg width="283" height="213" viewBox="0 0 283 213" fill="none" xmlns="http://www.w3.org/2000/svg">
<path d="M160.821 114.838L167.457 122.51C167.644 122.732 167.687 123.043 167.566 123.308C167.448 123.573 167.187 123.744 166.896 123.747H164.261C163.782 123.747 163.328 123.535 163.02 123.169L156.143 115.043L154.44 112.993C154.221 112.725 154.174 112.354 154.32 112.04C154.462 111.726 154.773 111.522 155.118 111.518H157.94C161.335 111.518 163.642 110.42 163.642 107.438C163.642 104.458 161.335 103.36 157.94 103.36H147.83C147.236 103.36 147.018 103.42 146.802 103.537C146.586 103.652 146.409 103.83 146.297 104.048C146.183 104.264 146.121 104.48 146.121 105.064V122.596C146.121 122.998 146.079 123.145 146.002 123.291C145.926 123.435 145.809 123.553 145.665 123.63C145.519 123.709 145.376 123.749 144.979 123.749H143.19C142.793 123.749 142.649 123.709 142.504 123.63C142.36 123.553 142.243 123.435 142.167 123.291C142.09 123.145 142.048 122.998 142.048 122.596V106.294C142.048 104.02 142.283 103.198 142.722 102.366C143.154 101.544 143.82 100.872 144.635 100.438C145.456 99.9933 146.273 99.7573 148.524 99.7573H158.211C163.743 99.7573 167.817 102.43 167.817 107.401C167.817 111.549 164.962 114.084 160.821 114.838ZM112.863 120.586C112.942 120.723 112.988 120.87 112.982 121.274V122.599C112.982 123.002 112.942 123.149 112.863 123.295C112.789 123.439 112.672 123.557 112.528 123.634C112.382 123.712 112.239 123.753 111.84 123.753H97.8681C95.6169 123.753 94.8004 123.517 93.9787 123.073C93.1643 122.636 92.4996 121.965 92.0712 121.146C91.6301 120.315 91.3942 119.491 91.3942 117.218V100.914C91.3942 100.513 91.438 100.369 91.5148 100.222C91.5912 100.078 91.7083 99.9597 91.8516 99.8815C91.998 99.803 92.1409 99.7609 92.5382 99.7609H94.3317C94.7272 99.7609 94.8701 99.803 95.0166 99.8815C95.1602 99.959 95.2776 100.077 95.3533 100.222C95.4301 100.369 95.4722 100.513 95.4722 100.914V118.4C95.4722 119.001 95.5327 119.219 95.648 119.438C95.7608 119.655 95.937 119.834 96.1532 119.949C96.3693 120.064 96.5869 120.125 97.1836 120.125H111.84C112.239 120.125 112.382 120.169 112.528 120.245C112.672 120.323 112.788 120.441 112.863 120.586ZM85.7451 100.218C85.8222 100.365 85.8643 100.511 85.8643 100.91V102.243C85.8643 102.644 85.8222 102.79 85.7451 102.937C85.6691 103.08 85.552 103.199 85.4084 103.275C85.2619 103.356 85.1193 103.396 84.7221 103.396H68.4018C67.8068 103.396 67.5907 103.455 67.3731 103.572C67.157 103.686 66.9808 103.864 66.8676 104.081C66.7544 104.3 66.6922 104.52 66.6922 105.121V109.298C66.6922 109.698 66.7321 109.843 66.811 109.99C66.8839 110.134 66.9989 110.253 67.1404 110.332C67.2868 110.409 67.4333 110.453 67.8288 110.453H79.055C79.4523 110.453 79.5948 110.495 79.7413 110.571C79.8849 110.649 80.0024 110.767 80.0781 110.912C80.1552 111.058 80.1973 111.205 80.1973 111.606V112.966C80.1973 113.369 80.1552 113.513 80.0781 113.659C80.002 113.803 79.8849 113.921 79.7413 113.998C79.5948 114.079 79.4523 114.119 79.055 114.119H67.8305C67.435 114.119 67.2886 114.161 67.1442 114.238C67.0003 114.316 66.8828 114.435 66.8075 114.58C66.7286 114.727 66.6883 114.871 66.6883 115.272V122.596C66.6883 122.998 66.6479 123.145 66.5712 123.291C66.4948 123.436 66.3766 123.553 66.2326 123.63C66.0862 123.709 65.9433 123.749 65.5481 123.749H63.756C63.3588 123.749 63.2159 123.709 63.0694 123.63C62.9258 123.554 62.8083 123.436 62.7326 123.291C62.6559 123.145 62.6138 122.998 62.6138 122.596V106.294C62.6138 104.02 62.848 103.198 63.2891 102.366C63.7171 101.546 64.3818 100.874 65.1965 100.438C66.0204 99.9933 66.8365 99.7573 69.0863 99.7573H84.7221C85.1193 99.7573 85.2619 99.7994 85.4084 99.878C85.5516 99.9558 85.6687 100.074 85.7451 100.218ZM136.035 99.7573C136.32 99.7552 136.581 99.9169 136.707 100.173C136.835 100.429 136.804 100.737 136.633 100.963L126.165 115.036C125.959 115.312 125.848 115.649 125.849 115.993V122.596C125.849 122.998 125.807 123.145 125.729 123.291C125.654 123.435 125.536 123.553 125.393 123.63C125.246 123.709 125.104 123.749 124.706 123.749H122.913C122.517 123.749 122.375 123.709 122.228 123.63C122.084 123.554 121.967 123.436 121.891 123.291C121.814 123.145 121.772 122.998 121.772 122.596V115.992C121.772 115.645 121.66 115.307 121.454 115.029L110.96 100.958C110.791 100.73 110.763 100.427 110.888 100.173C111.012 99.9197 111.269 99.7588 111.551 99.7573H113.967C114.482 99.7584 114.966 100.002 115.272 100.416L123.209 111.069C123.358 111.27 123.593 111.389 123.843 111.389C124.093 111.389 124.329 111.27 124.478 111.069L132.349 100.422C132.655 100.005 133.14 99.7584 133.657 99.7573H136.037H136.035Z" fill="#141414"/>
<path fill-rule="evenodd" clip-rule="evenodd" d="M219.707 66.4211C219.44 65.8922 219.022 65.4543 218.506 65.1635C217.954 64.8723 217.21 64.7369 216.149 64.7828C214.979 64.832 212.722 64.9912 211.573 65.0793C207.025 65.4323 203.896 67.4169 200.434 70.6363C192.047 78.4305 176.382 93.0814 172.514 96.7569C172.69 96.6235 172.862 96.6253 173.021 96.5977C173.252 96.5574 173.468 96.5209 173.693 96.4714C174.535 96.2885 175.233 96.1053 176.325 95.8785C177.81 95.5672 179.461 95.205 181.35 94.8367C186.808 93.7734 191.256 93.0376 195.267 92.7977C209.306 91.9593 212.429 96.7516 212.429 96.7516C212.429 96.7516 217.477 78.1029 219.835 69.3349C220.148 68.1728 220.077 67.1109 219.707 66.4211Z" fill="#3ABDFF"/>
<path fill-rule="evenodd" clip-rule="evenodd" d="M206.249 81.2842C199.111 81.2842 185.002 89.6896 172.514 96.7586H172.532C185.763 91.5146 194.747 87.6064 202.283 87.6432C209.852 87.6796 211.81 91.2875 212.427 96.7643C212.427 96.7643 212.57 94.5183 212.57 91.3296C212.57 87.5954 212.661 81.2842 206.248 81.2842H206.249Z" fill="#4361F7"/>
<path fill-rule="evenodd" clip-rule="evenodd" d="M202.283 87.6358C194.749 87.5993 185.754 91.5107 172.514 96.7586C172.555 96.7498 189.01 92.7099 198.086 92.7099C209.76 92.7099 212.409 96.7257 212.427 96.7586C211.812 91.2801 209.852 87.6725 202.283 87.6358Z" fill="#4739E6"/>
<path fill-rule="evenodd" clip-rule="evenodd" d="M212.429 96.7586C212.429 96.7586 215.019 82.8746 215.019 78.9413C215.019 77.4439 214.796 75.8916 213.901 74.9892C213.004 74.0868 211.887 73.7535 210.651 73.7535C206.729 73.7535 201.618 74.5643 172.523 96.7643C185.009 89.6988 199.12 81.2912 206.253 81.2912C212.667 81.2912 212.575 87.6011 212.575 91.3296C212.572 94.5109 212.429 96.7586 212.429 96.7586Z" fill="#3195F7"/>
</svg>
