<svg width="283" height="213" viewBox="0 0 283 213" fill="none" xmlns="http://www.w3.org/2000/svg">
<path d="M167.461 85.4H160.795V122.371C166.853 122.578 172.886 122.881 178.895 123.278V116.765C175.094 116.513 171.283 116.3 167.461 116.124V85.4ZM220.033 85.4H212.792L208.02 96.5202L203.732 85.4H196.6L204.264 105.27L195.899 124.764C198.213 124.99 200.521 125.233 202.826 125.488L207.692 114.154L212.509 126.648C215.02 126.973 217.523 127.311 220.022 127.67L220.033 127.666L211.446 105.405L220.033 85.4ZM138.032 122.18L144.713 122.179V107.084H153.768V100.546H144.713V91.9968H156.681V85.4H138.032V122.18ZM113.35 91.9762H120.309V122.455C122.522 122.371 124.739 122.303 126.959 122.246V91.9762H133.918V85.4H113.35V91.9762ZM90.5873 124.651C96.6841 124.092 102.809 123.632 108.962 123.275V116.706C105.031 116.935 101.111 117.206 97.202 117.516V107.572C99.7667 107.546 103.144 107.467 106.135 107.504V100.936C103.745 100.93 99.904 100.97 97.202 101.004V92.0272H108.962V85.4H90.5873V124.651ZM77.4288 109.321L68.8638 85.4H62.6138V127.67C64.8017 127.356 66.9935 127.056 69.19 126.768V103.781L76.8059 125.824C79.2011 125.544 81.6009 125.279 84.005 125.03V85.4H77.4288V109.321ZM184.38 123.828C186.577 123.998 188.771 124.18 190.962 124.376V85.4H184.38V123.828Z" fill="#D1232A"/>
</svg>
