<svg width="283" height="213" viewBox="0 0 283 213" fill="none" xmlns="http://www.w3.org/2000/svg">
<path d="M56.6212 99.6896C56.6212 97.6873 55.3155 96.3884 53.3023 96.3884H46.6949V102.991H53.3023C55.3155 102.991 56.6212 101.692 56.6212 99.6896ZM66.5336 112.582C66.5336 110.579 65.2276 109.28 63.2144 109.28H46.6949V115.883H63.2144C65.2276 115.879 66.5336 114.579 66.5336 112.582ZM63.2172 99.6896C63.2172 101.692 64.5229 102.991 66.5354 102.991H85.207C84.9802 100.726 84.439 98.5042 83.5992 96.3884H66.5354C64.5229 96.3884 63.2172 97.6873 63.2172 99.6896ZM73.1293 112.582C73.1293 114.584 74.4343 115.883 76.4474 115.883H83.5992C84.4397 113.767 84.981 111.545 85.2081 109.28H76.4474C74.4343 109.275 73.1293 110.575 73.1293 112.582ZM62.7142 83.485H50.7801C48.301 83.485 46.6949 85.091 46.6949 87.5655V90.1037H79.6153C75.6568 85.8915 69.8334 83.485 62.7142 83.485ZM46.6949 124.685C46.6949 127.161 48.3027 128.766 50.7801 128.766H62.7142C69.8334 128.766 75.6568 126.359 79.617 122.146H46.6949V124.685Z" fill="#0079FF"/>
<path d="M115.089 99.8576C113.78 98.1855 111.851 97.2045 109.196 97.2045C104.321 97.2045 100.32 101.383 100.32 106.799C100.32 112.214 104.321 116.392 109.196 116.392C111.851 116.392 113.78 115.411 115.089 113.738V115.882H119.782V90.4451H115.089V99.8576ZM110.071 111.922C107.16 111.922 105.014 109.85 105.014 106.799C105.014 103.746 107.16 101.675 110.071 101.675C112.945 101.675 115.091 103.746 115.091 106.799C115.091 109.851 112.943 111.922 110.071 111.922ZM132.779 97.2045C127.069 97.2045 123.174 101.383 123.174 106.799C123.174 112.214 127.029 116.392 133.141 116.392C136.634 116.392 139.362 114.977 141.072 112.5L137.288 110.319C136.491 111.374 135.033 112.137 133.216 112.137C130.742 112.137 128.741 111.119 128.087 108.721H141.801C141.918 108.086 141.977 107.441 141.979 106.795C141.981 101.457 138.161 97.2045 132.777 97.2045H132.779ZM128.014 105.09C128.559 102.765 130.269 101.42 132.779 101.42C134.744 101.42 136.708 102.474 137.294 105.09H128.014ZM149.085 102.874C149.085 101.893 150.031 101.383 151.195 101.383C152.541 101.383 153.56 102.074 154.105 103.241L158.107 101.06C156.69 98.5523 154.141 97.2081 151.195 97.2081C147.448 97.2081 144.283 99.2793 144.283 102.986C144.283 109.382 153.668 107.928 153.668 110.581C153.668 111.635 152.649 112.144 151.158 112.144C149.339 112.144 148.102 111.272 147.593 109.781L143.52 112.071C144.829 114.869 147.522 116.395 151.159 116.395C155.055 116.395 158.472 114.506 158.472 110.581C158.469 103.891 149.083 105.563 149.083 102.874H149.085ZM170.15 111.74C167.349 111.74 165.275 109.669 165.275 106.799C165.275 103.891 167.349 101.82 170.15 101.82C172.009 101.82 173.569 102.765 174.297 104.254L178.335 101.893C176.843 99.0946 173.751 97.2056 170.19 97.2056C164.66 97.2056 160.586 101.384 160.586 106.799C160.586 112.214 164.658 116.392 170.19 116.392C173.755 116.392 176.847 114.503 178.411 111.669L174.339 109.343C173.606 110.832 172.045 111.74 170.15 111.74ZM185.538 100.839V97.7132H180.846V115.883H185.538V107.198C185.538 103.382 188.63 102.293 191.068 102.583V97.3496C188.778 97.3496 186.485 98.3677 185.538 100.839ZM194.272 115.883H198.964V97.7132H194.272V115.883ZM194.272 95.2872H198.964V90.4479H194.272V95.2872ZM213.86 97.2045C211.204 97.2045 209.276 98.1855 207.966 99.8576V97.7132H203.274V123.151H207.966V113.739C209.276 115.411 211.204 116.392 213.86 116.392C218.735 116.392 222.736 112.214 222.736 106.799C222.736 101.385 218.735 97.2045 213.86 97.2045ZM212.987 111.922C210.112 111.922 207.966 109.85 207.966 106.799C207.966 103.746 210.112 101.675 212.987 101.675C215.897 101.675 218.043 103.746 218.043 106.799C218.043 109.851 215.897 111.922 212.987 111.922ZM236.306 102.219V97.7132H232.194V92.6263H227.495L227.502 97.7132H224.337V102.219H227.502V109.778C227.502 114.684 229.721 116.61 236.306 115.88V111.632C233.614 111.777 232.194 111.74 232.194 109.774V102.219H236.306Z" fill="#00073D"/>
</svg>
