<svg width="283" height="213" viewBox="0 0 283 213" fill="none" xmlns="http://www.w3.org/2000/svg">
<path d="M102.638 107.224V89.1855H105.454H108.269V90.378C108.269 91.0339 108.279 91.5705 108.292 91.5705C108.304 91.5705 108.659 91.3544 109.082 91.0901C114.062 87.9739 121.302 87.0354 127.795 88.6644C133.645 90.1321 137.885 93.6166 139.393 98.1934C140.274 100.868 140.225 103.843 139.259 106.429C138.056 109.647 135.583 112.234 132.017 114.007C128.896 115.558 125.332 116.334 121.337 116.334C118.025 116.334 114.937 115.783 112.217 114.705C111.138 114.278 109.756 113.576 108.916 113.031L108.269 112.61V118.937V125.263H105.454H102.638V107.224ZM124.061 111.539C127.228 111.09 129.686 110.086 131.528 108.488C132.923 107.278 133.894 105.598 134.263 103.76C134.413 103.008 134.413 101.231 134.263 100.481C133.83 98.3176 132.589 96.4271 130.73 95.1013C129.982 94.5671 128.46 93.8055 127.489 93.4793C124.746 92.5578 121.421 92.2847 118.376 92.7311C113.088 93.5066 109.514 96.1264 108.555 99.9303C108.132 101.609 108.208 103.42 108.766 105.004C110.036 108.601 113.781 110.995 119.073 111.592C120.137 111.712 123.058 111.681 124.061 111.539ZM142.729 107.224V89.1855H145.545H148.361V90.378C148.361 91.0339 148.373 91.5705 148.388 91.5705C148.403 91.5705 148.713 91.3766 149.076 91.1396C149.918 90.5913 151.58 89.7717 152.645 89.3787C157.244 87.6828 162.86 87.4093 167.774 88.6418C175.785 90.6511 180.503 96.1558 180.057 102.975C179.717 108.179 176.251 112.455 170.549 114.702C168.688 115.434 166.782 115.897 164.396 116.193C163.137 116.35 159.744 116.35 158.429 116.193C154.709 115.75 151.443 114.646 148.896 112.972L148.361 112.62V118.942V125.263H145.545H142.729V107.224ZM164.288 111.512C168.675 110.858 171.766 109.092 173.391 106.313C174.334 104.7 174.688 102.553 174.338 100.559C173.611 96.4158 169.966 93.5487 164.385 92.7304C160.702 92.1906 156.543 92.7283 153.716 94.1104C150.83 95.5215 149.094 97.6281 148.501 100.437C148.345 101.174 148.346 103.07 148.502 103.793C148.922 105.738 149.871 107.347 151.311 108.557C153.294 110.223 155.876 111.215 159.225 111.598C160.333 111.725 163.187 111.677 164.289 111.512H164.288ZM79.3794 116.297C76.3923 116.033 73.8428 115.445 71.6747 114.52C66.7434 112.416 63.629 108.865 62.7839 104.383C62.6222 103.527 62.5607 101.598 62.6654 100.676C63.276 95.3022 67.2383 91.0455 73.5032 89.0341C76.8373 87.9637 80.9412 87.6142 84.6244 88.0864C91.3733 88.952 96.4779 92.0785 98.7217 96.72C100.548 100.499 100.317 105.09 98.1207 108.619C97.1316 110.209 95.5026 111.849 93.8244 112.947C91.213 114.654 88.0944 115.716 84.3064 116.188C83.548 116.282 80.083 116.359 79.3794 116.297ZM83.3739 111.598C86.3111 111.286 88.7824 110.448 90.6417 109.134C92.1614 108.059 93.3642 106.475 93.904 104.837C94.2199 103.879 94.2825 103.429 94.2825 102.119C94.2825 100.813 94.221 100.366 93.9072 99.4068C92.8771 96.2538 89.8638 93.9084 85.6531 92.9827C81.9614 92.1708 77.6563 92.4531 74.4665 93.7156C72.1653 94.6269 70.3488 96.1013 69.2837 97.9235C68.151 99.861 67.8942 102.5 68.6165 104.775C69.3951 107.225 71.4462 109.276 74.2684 110.426C75.8058 111.052 77.709 111.489 79.5934 111.647C80.3165 111.708 82.6187 111.678 83.3739 111.598ZM199.53 116.299C199.412 116.286 198.999 116.245 198.612 116.208C195.504 115.914 192.236 114.933 189.84 113.576C186.601 111.741 184.345 109.132 183.316 106.032C182.619 103.934 182.5 101.576 182.981 99.4068C183.709 96.1264 185.708 93.341 188.812 91.2811C192.905 88.5643 198.924 87.358 204.733 88.0892C209.56 88.6966 213.536 90.4604 216.303 93.2207C218.411 95.3227 219.622 97.7859 219.972 100.68C220.063 101.432 220.049 102.953 219.944 103.751C219.184 109.498 214.624 113.89 207.64 115.602C205.523 116.12 204.194 116.277 201.703 116.303C200.626 116.314 199.648 116.312 199.53 116.299ZM203.233 111.626C206.952 111.285 209.982 110.06 211.927 108.114C213.245 106.797 214.009 105.346 214.311 103.593C214.435 102.871 214.433 101.365 214.307 100.616C213.629 96.5824 210.069 93.6583 204.794 92.803C203.528 92.5974 202.685 92.5306 201.367 92.5306C195.453 92.5306 190.863 94.7585 189.098 98.4863C188.572 99.5978 188.33 100.744 188.33 102.119C188.33 103.932 188.753 105.37 189.708 106.803C191.46 109.433 194.785 111.114 199.185 111.593C200.092 111.693 202.317 111.711 203.233 111.626Z" fill="#006B33"/>
</svg>
