<svg width="283" height="213" viewBox="0 0 283 213" fill="none" xmlns="http://www.w3.org/2000/svg">
<path fill-rule="evenodd" clip-rule="evenodd" d="M113.531 86.5103C117.42 74.6487 126.615 65.4862 141.987 65.4862C156.272 65.4862 166.768 74.776 170.576 86.7678C166.602 75.5879 155.312 67.5259 142.007 67.5259C128.801 67.5259 117.585 75.4634 113.531 86.5103ZM170.512 104.652C166.644 116.544 155.768 125.792 141.987 125.792C127.371 125.792 117.544 116.669 113.595 104.91C117.702 115.862 128.87 123.717 142.007 123.717C155.245 123.717 166.486 115.74 170.512 104.652Z" fill="#231F20"/>
<mask id="mask0_48_456" style="mask-type:alpha" maskUnits="userSpaceOnUse" x="62" y="65" width="159" height="84">
<path d="M62.6138 65.4866V148.23H220.03V65.4866" fill="white"/>
</mask>
<g mask="url(#mask0_48_456)">
<path fill-rule="evenodd" clip-rule="evenodd" d="M134.845 85.0833C134.463 84.1522 134.488 82.6364 135.307 81.2423C135.822 80.3664 137.189 79.9783 138.384 80.4386C139.724 79.3964 140.045 80.5189 141.226 80.0116C142.787 79.3465 141.915 81.7772 143.421 82.3923C144.046 80.7545 142.001 79.5213 143.282 78.748C144.198 78.1965 144.89 77.8555 145.264 77.1183C145.798 76.0652 146.008 75.2975 146.42 75.1564C147.367 74.8376 147.162 73.948 147.162 73.948C147.162 73.948 148.175 74.2387 148.961 73.5128C148.36 73.1913 147.483 72.9168 147.715 72.2793C147.984 71.5283 150.021 73.0554 150.624 71.8251C149.412 71.304 148.175 70.1731 147.436 69.9127C146.93 70.4586 146.614 70.2396 145.958 69.7298C144.854 68.8624 144.76 69.6853 144.068 69.0896C143.515 70.1844 144.348 70.0985 144.602 70.3726C145.313 71.1406 143.883 69.6828 144.021 71.6422C144.057 72.1491 143.294 72.2461 142.729 71.1406C142.436 70.5696 140.083 70.6889 139.726 70.1398C140.053 69.4999 142.82 67.2246 147.068 67.7676C140.897 65.3759 132.556 67.9922 132.473 68.901C131.641 69.4139 131.925 70.0015 131.51 70.1398C130.794 70.3754 130.008 72.5429 130.008 72.5429C130.008 72.5429 130.459 72.8365 129.061 74.3802C127.913 75.6523 127.573 77.5728 127.573 77.5728C127.573 77.5728 128.331 78.9447 128.187 80.5274C128.076 81.7329 128.026 80.8376 128.558 81.7106C128.868 82.2232 129.205 84.0083 129.413 83.3124C129.803 81.9852 128.693 80.7545 128.881 79.4325C128.92 79.5988 129.305 78.9086 129.288 79.5323C129.25 81.1648 131.328 84.3075 131.328 84.3075C131.328 84.3075 130.55 85.0861 131.361 85.0861L134.845 85.0833ZM147.815 104.625C148.228 104.791 148.745 105.198 148.983 105.819C149.545 107.291 148.709 106.099 148.709 108.322C148.709 110.364 148.125 110.034 148.125 110.034C148.125 110.034 147.998 112.448 146.733 113.934C145.928 114.732 146.553 115.394 146.553 115.394C146.553 115.394 146.282 115.547 145.889 117.296C145.762 117.864 146.495 118.739 147.135 118.52C147.613 118.357 145.972 118.202 147.751 117.459C148.432 117.177 147.873 116.636 147.873 116.636C147.873 116.636 149.027 116.55 149.675 114.832C150.823 114.995 150.397 114.302 152.757 113.801C153.38 113.668 153.513 113.482 153.436 112.903C153.355 112.324 154.205 112.986 156.546 110.633C158.389 108.774 157.725 108.358 158.998 107.684C160.345 106.975 160.47 107.745 160.918 107.169C161.95 105.847 161.585 105.93 162.017 105.088L162.319 104.625H147.815ZM142.591 83.5813C142.773 83.3071 143.329 83.4872 143.719 83.4953C144.251 83.5091 144.124 84.2796 144.854 84.1246C145.582 83.9722 145.59 84.8091 146.628 84.7787C147.671 84.7479 146.42 85.136 146.42 85.136C146.42 85.136 145.776 84.8311 145.358 85.0363C145.139 85.1445 145.441 84.9726 145.073 84.6761C144.5 84.2131 144.575 84.7646 143.617 83.9584C142.939 83.3903 142.289 84.0274 142.591 83.5813Z" fill="#231F20"/>
</g>
<path d="M90.6103 89.4561H85.9224L86.6224 90.2792V96.3542C86.6224 97.7204 85.7066 98.297 84.3397 98.297C82.97 98.297 82.0537 97.7204 82.0537 96.3542V90.2792L82.7538 89.4561H78.0663L78.7664 90.2792V96.4539C78.7664 99.4831 80.4849 100.65 84.3397 100.65C88.1917 100.65 89.9102 99.4831 89.9102 96.4539V90.2792L90.6103 89.4561Z" fill="#231F20"/>
<path d="M106.879 89.4567H102.925L103.628 90.2798V95.8114L97.9573 89.4567H94.4014L95.1043 90.2798V99.6139L94.4014 100.437H98.3559L97.6555 99.6139V93.985L103.677 100.437H106.179V90.2798L106.879 89.4567Z" fill="#231F20"/>
<path d="M115.989 100.437L115.289 99.6139V90.2798L115.989 89.4567H111.268L111.968 90.2798V99.6139L111.268 100.437H115.989Z" fill="#231F20"/>
<path d="M131.555 89.4567H127.586L128.286 90.2798L125.483 96.3215L122.782 90.2798L123.482 89.4567H118.812L123.997 100.437H126.319L131.555 89.4567Z" fill="#231F20"/>
<path d="M144.81 100.437V97.4578L143.977 98.1479H138.288V96.0414H141.891L142.707 96.7315V93.1594L141.891 93.852H138.288V91.7458H143.977L144.81 92.436V89.4567H134.336L135.036 90.2798V99.6139L134.336 100.437H144.81Z" fill="#231F20"/>
<path fill-rule="evenodd" clip-rule="evenodd" d="M156.922 93.0122C156.922 93.8021 156.156 94.4452 155.088 94.4452H152.971V91.7458H155.489C156.219 91.7458 156.922 92.1087 156.922 93.0122ZM160.758 100.437L157.739 96.1079C159.225 95.515 160.257 94.3787 160.257 92.7823C160.257 90.9559 159.122 89.4567 155.956 89.4567H149.016L149.716 90.2798V99.6139L149.016 100.437H153.671L152.971 99.6139V96.5016H154.368L156.504 99.6139L155.804 100.437H160.758Z" fill="#231F20"/>
<path d="M174.849 97.2275C174.849 95.4814 173.426 94.5114 171.376 93.8517C170.042 93.4417 168.157 93.1452 168.157 92.2722C168.157 91.8424 168.675 91.5488 169.577 91.5488C170.775 91.5488 172.743 92.0419 174.278 92.7653V89.0934L173.396 89.9332C172.461 89.5561 170.841 89.1599 169.726 89.1599C165.941 89.1599 164.72 90.8087 164.72 92.3054C164.72 94.3452 166.09 95.2348 168.24 95.9745C169.84 96.5179 171.326 96.5706 171.326 97.4741C171.326 98.2502 170.41 98.3471 169.942 98.3471C168.758 98.3471 166.655 97.934 164.787 96.734V100.8L165.672 99.8435C166.538 100.174 168.492 100.733 170.091 100.733C173.376 100.733 174.849 99.3005 174.849 97.2275Z" fill="#231F20"/>
<path fill-rule="evenodd" clip-rule="evenodd" d="M186.131 96.485H182.445L184.277 92.5523L186.131 96.485ZM191.483 100.437L186.012 89.4567H182.259L182.658 90.2798L177.705 100.437H181.795L181.092 99.6139L181.642 98.461H186.944L187.481 99.6139L186.781 100.437H191.483Z" fill="#231F20"/>
<path d="M204.666 100.437V97.4578L203.833 98.1479H198.478V90.2798L199.178 89.4567H194.524L195.224 90.2798V99.6139L194.524 100.437H204.666Z" fill="#231F20"/>
<path d="M201.55 90.9782C201.55 90.1331 202.247 89.4458 203.102 89.4458C203.96 89.4458 204.655 90.1331 204.655 90.9782C204.655 91.8237 203.96 92.511 203.102 92.511C202.247 92.511 201.55 91.8237 201.55 90.9782ZM201.697 90.9782C201.697 91.7459 202.328 92.3667 203.102 92.3667C203.88 92.3667 204.511 91.7459 204.511 90.9782C204.511 90.2106 203.88 89.5898 203.102 89.5898C202.328 89.5898 201.697 90.2106 201.697 90.9782Z" fill="#231F20"/>
<path fill-rule="evenodd" clip-rule="evenodd" d="M203.686 90.3796C203.534 90.2494 203.351 90.191 203.149 90.191C202.693 90.191 202.352 90.5402 202.352 90.9838C202.352 91.4299 202.687 91.7819 203.144 91.7819C203.351 91.7819 203.551 91.7069 203.708 91.5714V91.3715C203.567 91.5381 203.36 91.6432 203.138 91.6432C202.773 91.6432 202.502 91.3301 202.502 90.9838C202.502 90.6371 202.776 90.3297 203.141 90.3297C203.362 90.3297 203.542 90.4181 203.686 90.5763V90.3796Z" fill="#231F20"/>
<path d="M70.3153 141.287V145.361C70.3153 147.359 69.1971 148.133 66.6929 148.133C64.1855 148.133 63.0705 147.359 63.0705 145.361V141.287L62.6138 140.744H65.6606L65.2068 141.287V145.297C65.2068 146.198 65.8018 146.578 66.6929 146.578C67.5811 146.578 68.1786 146.198 68.1786 145.297V141.287L67.7223 140.744H70.7716L70.3153 141.287Z" fill="#231F20"/>
<path d="M82.5518 141.287V147.991H80.9249L77.0093 143.732V147.448L77.4628 147.991H74.8921L75.3488 147.448V141.287L74.8921 140.744H77.2028L80.8917 144.937V141.287L80.435 140.744H83.0085L82.5518 141.287Z" fill="#231F20"/>
<path d="M87.5082 147.991L87.9645 147.448V141.287L87.5082 140.744H90.577L90.1231 141.287V147.448L90.577 147.991H87.5082Z" fill="#231F20"/>
<path d="M98.9866 147.991H97.4786L94.1052 140.744H97.1436L96.6869 141.287L98.4443 145.276L100.268 141.287L99.8112 140.744H102.393L98.9866 147.991Z" fill="#231F20"/>
<path d="M105.863 147.991L106.32 147.448V141.287L105.863 140.744H112.676V142.712L112.134 142.255H108.434V143.646H110.778L111.309 143.188V145.547L110.778 145.09H108.434V146.481H112.134L112.676 146.027V147.991H105.863Z" fill="#231F20"/>
<path d="M121.277 142.255H119.639V144.037H121.017C121.712 144.037 122.21 143.613 122.21 143.092C122.21 142.493 121.756 142.255 121.277 142.255ZM121.482 147.991L121.938 147.448L120.549 145.395H119.639V147.448L120.095 147.991H117.068L117.525 147.448V141.287L117.068 140.744H121.581C123.643 140.744 124.379 141.733 124.379 142.939C124.379 143.992 123.707 144.744 122.741 145.134L124.706 147.991H121.482Z" fill="#231F20"/>
<path d="M132.429 148.186C131.389 148.186 130.118 147.817 129.554 147.598L128.978 148.23V145.544C130.196 146.337 131.56 146.611 132.332 146.611C132.637 146.611 133.232 146.545 133.232 146.035C133.232 145.436 132.266 145.403 131.225 145.046C129.825 144.558 128.937 143.97 128.937 142.623C128.937 141.634 129.728 140.547 132.191 140.547C132.916 140.547 133.97 140.808 134.576 141.06L135.152 140.503V142.928C134.153 142.449 132.874 142.122 132.094 142.122C131.508 142.122 131.17 142.319 131.17 142.601C131.17 143.178 132.396 143.374 133.265 143.646C134.599 144.078 135.52 144.718 135.52 145.871C135.52 147.24 134.565 148.186 132.429 148.186Z" fill="#231F20"/>
<path d="M143.321 142.787L142.128 145.383H144.522L143.321 142.787ZM144.948 147.989L145.402 147.448L145.056 146.686H141.608L141.248 147.448L141.705 147.989H139.046L142.269 141.287L142.009 140.744H144.447L148 147.989H144.948Z" fill="#231F20"/>
<path d="M151.634 147.991L152.091 147.448V141.287L151.634 140.744H154.661L154.205 141.287V146.481H157.686L158.229 146.027V147.991H151.634Z" fill="#231F20"/>
<path d="M175.576 147.991L176.033 147.448V143.973L174.113 147.991H173.103L170.933 143.907V147.448L171.389 147.991H168.882L169.339 147.448V141.287L168.882 140.744H171.434L173.786 145.176L175.933 140.744H178.537L178.083 141.287V147.448L178.537 147.991H175.576Z" fill="#231F20"/>
<path d="M190.359 141.287V145.361C190.359 147.359 189.241 148.133 186.737 148.133C184.232 148.133 183.114 147.359 183.114 145.361V141.287L182.658 140.744H185.705L185.251 141.287V145.297C185.251 146.198 185.849 146.578 186.737 146.578C187.625 146.578 188.223 146.198 188.223 145.297V141.287L187.766 140.744H190.816L190.359 141.287Z" fill="#231F20"/>
<path d="M198.323 148.186C197.283 148.186 196.013 147.817 195.448 147.598L194.872 148.23V145.544C196.088 146.337 197.454 146.611 198.224 146.611C198.528 146.611 199.126 146.545 199.126 146.035C199.126 145.436 198.16 145.403 197.119 145.046C195.719 144.558 194.831 143.97 194.831 142.623C194.831 141.634 195.622 140.547 198.085 140.547C198.81 140.547 199.862 140.808 200.471 141.06L201.046 140.503V142.928C200.047 142.449 198.769 142.122 197.986 142.122C197.399 142.122 197.064 142.319 197.064 142.601C197.064 143.178 198.29 143.374 199.159 143.646C200.493 144.078 201.414 144.718 201.414 145.871C201.414 147.24 200.46 148.186 198.323 148.186Z" fill="#231F20"/>
<path d="M205.809 147.991L206.265 147.448V141.287L205.809 140.744H208.881L208.424 141.287V147.448L208.881 147.991H205.809Z" fill="#231F20"/>
<path d="M217.188 148.13C214.985 148.13 213.001 147.043 213.001 144.36C213.001 142.24 214.52 140.603 217.276 140.603C218.109 140.603 219.009 140.796 219.521 140.993L220.022 140.514V142.928C219.238 142.448 218.414 142.165 217.392 142.165C215.865 142.165 215.267 143.188 215.267 144.36C215.267 145.674 216.136 146.566 217.459 146.566C218.795 146.566 219.595 146.043 220.032 145.774V147.467C219.509 147.772 218.264 148.13 217.188 148.13Z" fill="#231F20"/>
</svg>
