<svg width="283" height="213" viewBox="0 0 283 213" fill="none" xmlns="http://www.w3.org/2000/svg">
<path d="M64.1129 111.745L57.2682 99.8573H50.3722C47.5418 99.8573 45.7918 102.945 47.1814 105.364L57.4741 123.222C58.8636 125.641 62.4149 125.692 63.8557 123.222L70.4945 111.745C69.105 114.216 65.5541 114.164 64.1129 111.745Z" fill="#8759F2"/>
<path d="M71.0093 99.8573H57.2686L64.1133 111.745C65.5028 114.164 69.0537 114.216 70.4946 111.745L74.2001 105.364C75.5896 102.894 73.7883 99.8573 71.0093 99.8573Z" fill="#FF3E80"/>
<path d="M77.6482 88.3813H57.0111C54.1808 88.3813 52.4307 91.4176 53.8203 93.8878L57.2683 99.8577H71.0093C73.8397 99.8577 75.5897 102.946 74.2002 105.364L80.839 93.8878C82.2285 91.4692 80.4785 88.3813 77.6482 88.3813Z" fill="#FFC300"/>
<path d="M53.8202 93.8881C53.1513 92.7621 53.1513 91.3602 53.8202 90.2343L47.1814 101.711C47.8503 100.579 49.0343 99.858 50.3722 99.858H57.2682L53.8202 93.8881Z" fill="#00D4E6"/>
<path d="M204.97 99.4459C199.412 99.4459 195.038 103.717 195.038 109.018C195.038 114.319 199.309 118.591 204.97 118.591C210.631 118.591 214.902 114.319 214.902 109.018C214.902 103.717 210.528 99.4459 204.97 99.4459ZM204.97 114.731C201.831 114.731 199.515 112.209 199.515 109.07C199.515 105.931 201.934 103.409 204.97 103.409C208.006 103.409 210.425 105.931 210.425 109.07C210.425 112.209 208.058 114.731 204.97 114.731ZM140.022 92.0865H138.427C137.398 92.0865 136.883 92.6012 136.883 93.6307V116.635C136.883 117.664 137.398 118.179 138.427 118.179H140.022C141.052 118.179 141.566 117.664 141.566 116.635V93.6307C141.566 92.6012 141.052 92.0865 140.022 92.0865ZM189.737 99.909H188.141C187.112 99.909 186.597 100.424 186.597 101.453V116.686C186.597 117.716 187.112 118.23 188.141 118.23H189.737C190.766 118.23 191.28 117.716 191.28 116.686V101.453C191.28 100.424 190.714 99.909 189.737 99.909ZM110.173 99.8577H108.681C107.652 99.8577 107.188 100.218 106.828 101.196L102.454 113.084L98.0793 101.196C97.7192 100.218 97.2558 99.8577 96.2267 99.8577H94.6826C93.7048 99.8577 92.83 100.269 93.3447 101.607L99.3659 116.583C99.8806 117.922 100.395 118.179 101.476 118.179H103.38C104.461 118.179 104.976 117.87 105.49 116.583L111.512 101.607C112.026 100.269 111.151 99.8577 110.173 99.8577ZM162.255 99.909H160.659C159.63 99.909 159.116 100.424 159.116 101.453V109.121C158.961 112.775 156.851 114.731 154.278 114.731C152.219 114.731 151.087 112.929 151.087 110.202V101.453C151.087 100.424 150.573 99.909 149.543 99.909H147.948C146.919 99.909 146.404 100.424 146.404 101.453V110.562C146.404 113.804 147.845 118.642 153.197 118.642C157.469 118.642 158.807 115.863 159.116 114.937V116.686C159.116 117.716 159.63 118.23 160.659 118.23H162.255C163.284 118.23 163.799 117.716 163.799 116.686V101.453C163.799 100.424 163.284 99.909 162.255 99.909ZM220.1 118.23H221.696C222.725 118.23 223.24 117.716 223.24 116.686V108.967C223.394 105.313 225.504 103.357 228.077 103.357C230.136 103.357 231.268 105.158 231.268 107.886V116.635C231.268 117.664 231.783 118.179 232.812 118.179H234.407C235.437 118.179 235.951 117.664 235.951 116.635V107.526C235.951 104.283 234.51 99.4459 229.158 99.4459C224.887 99.4459 223.548 102.225 223.24 103.151V101.453C223.24 100.424 222.725 99.909 221.696 99.909H220.1C219.071 99.909 218.556 100.424 218.556 101.453V116.686C218.556 117.716 219.123 118.23 220.1 118.23ZM191.847 94.5055C191.847 95.9979 190.766 97.2329 188.913 97.2329C187.061 97.2329 185.98 95.9979 185.98 94.5055C185.98 93.013 187.112 91.7777 188.913 91.7777C190.714 91.7777 191.847 93.013 191.847 94.5055ZM181.502 102.328C181.605 101.968 181.605 101.607 181.451 101.247C181.296 100.938 180.988 100.681 180.679 100.578C179.238 100.064 177.283 99.4459 175.018 99.4459C171.004 99.4459 168.225 101.71 168.07 104.644C167.967 107.011 169.305 108.555 171.004 109.481C173.011 110.562 175.327 110.922 176.356 111.283C177.437 111.694 178.003 112.158 178.054 113.084C178.054 114.01 177.18 114.834 175.378 114.834C173.114 114.834 171.21 114.062 169.974 113.547C169.305 113.238 168.534 113.495 168.173 114.165L167.813 115.143C167.504 115.811 167.762 116.583 168.379 116.944C169.717 117.664 172.239 118.642 175.172 118.642C179.701 118.642 182.429 116.223 182.429 113.032C182.429 111.592 181.965 109.842 179.547 108.555C178.26 107.834 174.709 107.165 173.525 106.497C172.702 106.085 172.342 105.416 172.445 104.695C172.548 103.666 173.525 103.203 174.761 103.1C176.768 102.997 178.209 103.666 179.65 104.026C180.319 104.181 180.988 103.769 181.194 103.151L181.502 102.328ZM123.039 99.4459C117.481 99.4459 113.107 103.717 113.107 109.018C113.107 114.319 117.378 118.591 123.039 118.591C128.7 118.591 132.972 114.319 132.972 109.018C132.972 103.717 128.597 99.4459 123.039 99.4459ZM123.039 114.731C119.9 114.731 117.584 112.209 117.584 109.07C117.584 105.931 120.003 103.409 123.039 103.409C126.076 103.409 128.494 105.931 128.494 109.07C128.494 112.209 126.179 114.731 123.039 114.731Z" fill="#221B43"/>
</svg>
