<svg width="283" height="213" viewBox="0 0 283 213" fill="none" xmlns="http://www.w3.org/2000/svg">
<path d="M101.226 117.819H90.7704V116.403C91.4426 116.437 92.1154 116.346 92.7546 116.136C93.1264 115.999 93.4246 115.713 93.5775 115.347C93.7211 114.893 93.7858 114.417 93.7692 113.941V100.848L85.894 117.819H84.9852L76.9788 100.848V113.278C76.9692 113.785 76.9929 114.292 77.0495 114.795C77.0856 115.119 77.2077 115.426 77.4029 115.685C77.6368 115.957 77.952 116.145 78.3015 116.222C78.8597 116.358 79.4338 116.418 80.008 116.398V117.815H72.2891V116.398C72.8668 116.417 73.4445 116.356 74.0055 116.216C74.3497 116.128 74.6582 115.936 74.8892 115.665C75.0774 115.405 75.1941 115.1 75.2274 114.78C75.2751 114.276 75.2953 113.769 75.2879 113.263V101.449C75.3077 100.809 75.262 100.168 75.1517 99.5377C75.0477 99.139 74.764 98.8114 74.384 98.6526C73.7119 98.4103 72.9973 98.3087 72.2842 98.3544V96.9383H79.9372L86.8329 111.67L93.7692 96.9333H101.226V98.3491C99.9432 98.3491 99.1151 98.5348 98.7415 98.9055C98.3149 99.4443 98.1139 100.128 98.1812 100.812V113.961C98.1674 114.425 98.2286 114.888 98.363 115.332C98.5197 115.71 98.8299 116.005 99.2162 116.141C99.8657 116.361 100.551 116.457 101.235 116.424L101.226 117.819Z" fill="black"/>
<path d="M118.561 114.573C118.582 115.267 118.418 115.955 118.086 116.565C117.792 117.092 117.345 117.517 116.804 117.784C116.233 118.05 115.61 118.183 114.981 118.174C114.219 118.203 113.466 117.99 112.831 117.567C112.316 117.234 111.953 116.71 111.821 116.11C110.105 117.486 108.382 118.174 106.652 118.174C105.68 118.216 104.723 117.931 103.931 117.364C103.246 116.876 102.848 116.078 102.871 115.235C102.863 114.533 103.062 113.843 103.441 113.253C103.873 112.61 104.443 112.071 105.107 111.675C105.934 111.169 106.814 110.759 107.732 110.451C108.742 110.097 110.009 109.723 111.529 109.333V108.454C111.567 107.84 111.388 107.233 111.024 106.739C110.681 106.324 110.045 106.112 109.126 106.112C108.513 106.059 107.904 106.24 107.419 106.618C107.03 107.024 106.786 107.549 106.728 108.109C106.664 108.528 106.51 108.927 106.274 109.278C106.051 109.576 105.592 109.728 104.895 109.728C104.486 109.735 104.086 109.605 103.759 109.359C103.42 109.102 103.231 108.692 103.255 108.267C103.255 107.312 103.773 106.481 104.81 105.773C105.846 105.065 107.435 104.71 109.575 104.706C111.833 104.706 113.383 105.087 114.224 105.849C115.075 106.622 115.539 107.734 115.492 108.883V113.754C115.492 114.371 115.492 114.826 115.537 115.109C115.551 115.35 115.641 115.58 115.794 115.766C115.973 115.929 116.21 116.01 116.451 115.989C116.739 115.976 117.001 115.818 117.147 115.569C117.356 115.274 117.461 114.918 117.445 114.558L118.561 114.573ZM111.493 114.694V110.876C109.545 111.493 108.306 112.095 107.778 112.681C107.309 113.142 107.027 113.76 106.985 114.416C106.965 114.84 107.123 115.252 107.419 115.554C107.747 115.859 108.185 116.016 108.631 115.989C109.158 116.001 109.679 115.879 110.145 115.635C110.627 115.361 111.085 115.046 111.514 114.694H111.493Z" fill="black"/>
<path d="M133.044 107.119C133.071 107.643 132.875 108.154 132.504 108.524C132.159 108.858 131.696 109.04 131.217 109.03C130.603 109.006 130.038 108.686 129.702 108.171C129.552 107.969 129.383 107.783 129.197 107.614C129.033 107.493 128.831 107.433 128.627 107.447C127.8 107.465 127.064 107.977 126.759 108.747C126.323 109.58 126.095 110.507 126.093 111.448V114.133C126.04 114.742 126.153 115.353 126.421 115.903C126.643 116.222 127.223 116.378 128.168 116.378H128.985V117.794H119.409V116.378H120.212C121.07 116.378 121.6 116.211 121.792 115.873C122.031 115.322 122.132 114.721 122.084 114.123V109.647C122.116 109.146 122.045 108.644 121.878 108.171C121.733 107.867 121.457 107.648 121.13 107.574C120.564 107.459 119.986 107.411 119.409 107.432V106.016L125.406 104.686C125.642 105.788 125.786 106.908 125.835 108.034C126.126 107.424 126.507 106.861 126.966 106.365C127.419 105.876 127.949 105.466 128.536 105.151C129.081 104.851 129.691 104.69 130.313 104.686C131.055 104.64 131.783 104.898 132.332 105.399C132.802 105.845 133.061 106.47 133.044 107.119Z" fill="black"/>
<path d="M150.516 117.82H142.888V116.403C143.792 116.403 144.241 116.221 144.241 115.868C144.223 115.573 144.104 115.294 143.903 115.079L141.106 111.382L139.491 112.489V114.416C139.465 114.874 139.528 115.333 139.677 115.766C139.759 116.009 139.944 116.204 140.182 116.297C140.529 116.382 140.886 116.417 141.242 116.403V117.82H133.297V116.403C133.764 116.424 134.232 116.365 134.68 116.227C134.982 116.121 135.224 115.888 135.341 115.589C135.484 115.126 135.545 114.642 135.523 114.158V101.05C135.55 100.67 135.479 100.29 135.316 99.9474C135.177 99.7128 134.946 99.5476 134.68 99.4921C134.224 99.4033 133.761 99.3577 133.297 99.3555V97.9345L139.506 96.5641V110.749L143.827 107.796C144.018 107.66 144.2 107.511 144.372 107.351C144.449 107.265 144.491 107.153 144.488 107.038C144.488 106.764 144.246 106.623 143.766 106.623H142.888V105.207H149.405V106.613C148.141 106.798 146.942 107.295 145.917 108.059L144.347 109.172L148.466 114.734C148.797 115.174 149.159 115.588 149.552 115.974C149.807 116.231 150.153 116.378 150.516 116.383V117.82Z" fill="black"/>
<path d="M187.494 111.473C187.57 114.058 186.089 116.437 183.738 117.506C182.551 118.061 181.256 118.342 179.947 118.33C178.686 118.337 177.438 118.08 176.282 117.577C175.146 117.086 174.166 116.292 173.45 115.281C172.694 114.172 172.31 112.85 172.354 111.508C172.354 109.276 173.113 107.59 174.631 106.451C176.188 105.279 178.095 104.668 180.042 104.716C181.445 104.679 182.834 104.997 184.081 105.642C185.157 106.204 186.047 107.067 186.646 108.125C187.22 109.154 187.517 110.314 187.509 111.493L187.494 111.473ZM183.268 111.402C183.268 109.656 183.038 108.342 182.577 107.462C182.116 106.582 181.22 106.131 179.891 106.107C178.418 105.943 177.087 106.995 176.903 108.469C176.691 109.5 176.596 110.552 176.62 111.604C176.571 112.911 176.784 114.214 177.246 115.438C177.67 116.414 178.584 116.904 179.997 116.904C180.791 116.958 181.569 116.663 182.128 116.095C182.631 115.527 182.957 114.824 183.066 114.072C183.211 113.173 183.281 112.262 183.273 111.352" fill="#D82231"/>
<path d="M204.854 106.057C204.869 106.381 204.761 106.699 204.551 106.947C204.387 107.156 204.136 107.281 203.87 107.286C203.508 107.268 203.164 107.121 202.901 106.871C202.811 106.812 202.725 106.748 202.643 106.679C202.548 106.597 202.447 106.523 202.34 106.456C202.263 106.408 202.174 106.38 202.083 106.375C201.799 106.369 201.526 106.483 201.331 106.689C201.645 107.075 201.916 107.496 202.138 107.943C202.343 108.421 202.439 108.94 202.421 109.46C202.45 110.192 202.254 110.916 201.861 111.533C201.49 112.081 200.981 112.52 200.387 112.808C199.795 113.099 199.169 113.315 198.524 113.45C197.893 113.587 197.085 113.718 196.101 113.855C193.688 114.148 192.476 114.644 192.476 115.332C192.476 115.63 192.653 115.837 193.021 115.949C193.551 116.079 194.097 116.135 194.642 116.115H196.979C197.697 116.114 198.416 116.153 199.13 116.232C199.85 116.315 200.556 116.494 201.23 116.763C201.943 117.043 202.572 117.505 203.052 118.103C203.581 118.802 203.85 119.664 203.809 120.541C203.787 121.342 203.546 122.122 203.113 122.796C202.514 123.672 201.664 124.346 200.675 124.728C199.173 125.318 197.566 125.588 195.955 125.522C194.399 125.522 192.851 125.315 191.35 124.905C189.829 124.497 189.069 123.578 189.069 122.149C189.066 121.663 189.22 121.189 189.508 120.798C189.818 120.382 190.319 120.153 190.835 120.191C191.238 120.174 191.637 120.27 191.987 120.469C191.766 120.808 191.649 121.203 191.648 121.607C191.648 122.28 192.042 122.862 192.825 123.357C193.607 123.853 194.793 124.106 196.358 124.106C197.648 124.163 198.933 123.928 200.119 123.418C201.038 122.963 201.497 122.356 201.497 121.607C201.525 121.13 201.299 120.674 200.902 120.409C200.387 120.106 199.806 119.933 199.21 119.903C198.479 119.822 197.338 119.777 195.793 119.757C194.294 119.792 192.798 119.584 191.366 119.14C190.285 118.75 189.75 117.921 189.75 116.661C189.686 115.724 190.147 114.828 190.946 114.335C191.866 113.811 192.863 113.435 193.9 113.223C191.153 112.717 189.781 111.407 189.781 109.344C189.795 108.623 189.98 107.916 190.321 107.28C190.773 106.491 191.454 105.858 192.274 105.465C193.453 104.908 194.749 104.648 196.05 104.706C198.07 104.706 199.623 105.18 200.71 106.127C201.241 105.267 202.178 104.743 203.188 104.742C203.627 104.715 204.059 104.854 204.4 105.131C204.675 105.364 204.834 105.706 204.834 106.067L204.854 106.057ZM198.569 109.273C198.587 108.473 198.385 107.684 197.984 106.992C197.604 106.352 196.898 105.979 196.156 106.026C195.403 105.951 194.67 106.297 194.248 106.927C193.865 107.58 193.672 108.328 193.693 109.086C193.68 109.887 193.853 110.679 194.198 111.402C194.567 112.124 195.341 112.544 196.146 112.459C196.825 112.478 197.471 112.172 197.888 111.635C198.379 110.949 198.616 110.114 198.559 109.273" fill="#D82231"/>
<path d="M214.825 117.82H206.475V116.404H206.919C207.367 116.436 207.816 116.35 208.222 116.156C208.484 116.011 208.669 115.757 208.726 115.463C208.797 115.032 208.828 114.595 208.817 114.158V109.607C208.836 109.15 208.797 108.693 208.701 108.246C208.611 107.965 208.388 107.748 208.106 107.665C207.577 107.515 207.029 107.449 206.48 107.467V106.051L212.785 104.722V114.184C212.731 114.792 212.843 115.403 213.108 115.953C213.325 116.272 213.896 116.429 214.83 116.429L214.825 117.82ZM213.088 98.6781C213.09 99.5826 212.544 100.398 211.709 100.741C210.874 101.084 209.914 100.886 209.282 100.241C208.853 99.8352 208.611 99.2689 208.615 98.6781C208.614 97.7693 209.158 96.949 209.995 96.5984C210.832 96.2478 211.797 96.4357 212.442 97.0749C212.868 97.4973 213.102 98.0774 213.088 98.6781Z" fill="#D82231"/>
<path d="M229.404 114.704C228.336 117.022 225.972 118.46 223.426 118.341C222.171 118.346 220.929 118.078 219.787 117.557C218.68 117.061 217.729 116.272 217.035 115.276C216.335 114.246 215.973 113.022 216.001 111.776C215.997 110.864 216.186 109.961 216.556 109.126C216.946 108.27 217.498 107.497 218.181 106.85C218.909 106.161 219.767 105.624 220.706 105.273C221.7 104.892 222.756 104.7 223.82 104.706C225.115 104.68 226.397 104.97 227.556 105.551C228.63 106.107 229.166 106.879 229.166 107.867C229.173 108.306 228.988 108.727 228.661 109.02C228.351 109.331 227.929 109.504 227.49 109.501C226.875 109.543 226.302 109.181 226.077 108.605C226.006 108.398 225.905 108.034 225.769 107.513C225.686 107.087 225.451 106.705 225.108 106.441C224.718 106.202 224.266 106.086 223.81 106.107C222.877 106.108 221.982 106.483 221.326 107.149C220.6 107.842 220.241 109.142 220.241 111.038C220.231 111.991 220.379 112.94 220.68 113.845C220.934 114.64 221.415 115.344 222.063 115.868C222.726 116.374 223.542 116.637 224.375 116.611C225.218 116.669 226.052 116.402 226.703 115.863C227.249 115.335 227.724 114.738 228.116 114.087L229.404 114.704Z" fill="#D82231"/>
<path d="M162.51 116.111C163.498 116.116 164.483 116.026 165.454 115.842C166.4 115.629 167.258 115.129 167.912 114.411C168.664 113.633 169.134 112.449 169.32 110.871H170.734L170.592 117.845H152.459V116.429C153.737 116.429 154.564 116.247 154.933 115.878C155.355 115.335 155.552 114.651 155.483 113.966V100.817C155.502 100.342 155.44 99.8667 155.302 99.4114C155.142 99.0407 154.831 98.757 154.448 98.6325C153.808 98.4167 153.134 98.3222 152.459 98.3544V96.9384H162.944V98.3544C162.274 98.3236 161.604 98.4128 160.965 98.6176C160.58 98.7372 160.262 99.012 160.087 99.376C159.932 99.8398 159.863 100.329 159.885 100.817V112.828C159.865 113.506 159.911 114.183 160.021 114.851C160.112 115.264 160.391 115.61 160.774 115.787C161.313 116.008 161.893 116.113 162.475 116.095L162.51 116.111Z" fill="#D82231"/>
<path d="M59.0023 111.291C60.1176 111.291 61.0218 110.385 61.0218 109.268V98.9866C61.0218 97.8695 60.1176 96.9639 59.0023 96.9639H48.7141C47.5991 96.9639 46.6949 97.8695 46.6949 98.9866V109.258C46.6949 110.375 47.5991 111.281 48.7141 111.281L59.0023 111.291Z" fill="#D82231"/>
<path d="M68.377 95.5729C69.2603 95.57 69.9767 94.8548 69.9823 93.9697V88.9125C69.9767 88.0267 69.261 87.3096 68.377 87.3043H63.3286C62.4464 87.3125 61.7339 88.0284 61.7283 88.9125V93.9697C61.7339 94.8576 62.4524 95.575 63.3389 95.5778L68.377 95.5729Z" fill="#D82231"/>
<path d="M231.938 106.719C231.935 106.443 231.988 106.169 232.094 105.915C232.191 105.677 232.336 105.462 232.518 105.283C232.7 105.101 232.916 104.959 233.154 104.863C233.662 104.661 234.227 104.661 234.734 104.863C234.972 104.959 235.188 105.101 235.37 105.283C235.553 105.462 235.698 105.677 235.794 105.915C235.901 106.169 235.954 106.443 235.951 106.719C235.955 106.993 235.901 107.265 235.794 107.518C235.699 107.758 235.555 107.975 235.37 108.155C235.188 108.337 234.972 108.479 234.734 108.575C234.227 108.777 233.662 108.777 233.154 108.575C232.916 108.479 232.7 108.337 232.518 108.155C232.334 107.975 232.19 107.758 232.094 107.518C231.987 107.265 231.934 106.993 231.938 106.719ZM232.372 106.719C232.369 106.935 232.407 107.149 232.483 107.351C232.556 107.538 232.664 107.71 232.801 107.857C232.945 108.003 233.116 108.118 233.306 108.196C233.508 108.285 233.726 108.33 233.947 108.327C234.595 108.346 235.184 107.95 235.411 107.341C235.559 106.933 235.559 106.485 235.411 106.077C235.271 105.688 234.974 105.376 234.593 105.217C234.388 105.132 234.169 105.089 233.947 105.091C233.727 105.089 233.509 105.132 233.306 105.217C233.116 105.296 232.944 105.413 232.801 105.561C232.664 105.708 232.556 105.879 232.483 106.067C232.407 106.269 232.369 106.483 232.372 106.699V106.719ZM234.24 106.881L234.8 107.715H234.331L233.826 106.926H233.619V107.715H233.21V105.657H233.907C234.012 105.657 234.116 105.667 234.22 105.687C234.312 105.71 234.4 105.745 234.482 105.793C234.559 105.842 234.623 105.908 234.669 105.986C234.717 106.076 234.742 106.177 234.74 106.279C234.747 106.423 234.699 106.565 234.603 106.674C234.501 106.775 234.371 106.842 234.229 106.866L234.24 106.881ZM233.619 106.011V106.613H233.846C233.969 106.62 234.092 106.598 234.204 106.547C234.282 106.499 234.327 106.411 234.32 106.319C234.325 106.246 234.295 106.175 234.24 106.127C234.156 106.069 234.054 106.042 233.952 106.052L233.619 106.011Z" fill="#D82231"/>
</svg>
