<svg width="283" height="213" viewBox="0 0 283 213" fill="none" xmlns="http://www.w3.org/2000/svg">
<path fill-rule="evenodd" clip-rule="evenodd" d="M127.647 108.595L134.615 94.0922H141.763L142.652 108.579L142.829 108.594L149.392 93.6815H155.8C155.8 93.6815 148.611 109.557 145.023 117.479H137.572C137.125 112.299 136.68 107.144 136.235 101.989C136.179 101.979 136.122 101.969 136.066 101.959C135.58 103.018 135.086 104.075 134.608 105.138C132.857 109.029 131.104 112.919 129.374 116.82C129.156 117.311 128.913 117.545 128.336 117.533C126.351 117.496 124.364 117.52 122.378 117.517C122.175 117.517 121.971 117.488 121.691 117.467C121.237 109.562 120.785 101.679 120.328 93.7222H127.171L127.469 108.535L127.647 108.595ZM157.377 93.6992H164.593L166.796 107.884L173.853 93.6359C173.853 93.6359 178.103 93.6515 179.822 93.6515H180.643C180.058 94.7361 179.546 95.6951 179.026 96.6505C175.12 103.833 171.22 111.018 167.303 118.194C166.335 119.968 165.24 121.655 163.798 123.096C161.503 125.392 158.692 126.225 155.533 125.998C154.394 125.916 153.267 125.673 152.027 125.486C153.12 123.373 154.033 121.549 154.493 120.596C161.237 121.704 161.452 115.61 161.128 114.026C159.766 107.377 158.61 100.687 157.378 94.0116C157.363 93.9263 157.377 93.8354 157.377 93.6992ZM205.472 107.555C205.05 109.842 206.397 111.846 208.715 112.526C210.601 113.08 212.471 112.833 214.337 112.446C215.113 112.286 215.874 112.054 216.706 111.838C216.706 112.114 216.741 112.346 216.7 112.565C216.242 115 215.836 116.983 215.836 116.983C215.836 116.983 215.128 117.236 214.873 117.299C212.607 117.853 210.653 117.989 208.329 117.773C206.695 117.62 205.11 117.279 203.634 116.55C200.617 115.06 198.972 112.543 198.634 109.26C198.184 104.896 199.221 100.871 201.986 97.41C204.65 94.0745 208.253 92.8987 212.395 93.1665C214.159 93.2807 215.807 93.782 217.304 94.7941C220.821 97.1699 221.193 103.313 216.917 105.873C215.338 106.818 213.616 107.305 211.809 107.53C209.86 107.773 207.91 107.799 205.958 107.557C205.814 107.539 205.665 107.555 205.472 107.555ZM206.025 103.047C207.906 103.372 209.694 103.391 211.422 102.741C211.983 102.53 212.547 102.166 212.95 101.726C214.14 100.429 213.589 98.5732 211.916 98.0454C210.417 97.5728 208.708 98.1483 207.653 99.4972C206.857 100.514 206.343 101.666 206.025 103.047ZM186.619 117.483H179.437C181.016 109.539 182.586 101.646 184.164 93.7081H189.202C189.367 95.0764 189.536 96.4715 189.729 98.0641C190.465 96.2734 191.34 94.8004 193.044 94.0682C194.714 93.3501 197.297 93.3883 199.93 94.1991C198.893 96.214 198.103 98.0061 196.98 100.187C195.967 99.9861 195.055 99.7289 194.128 99.6366C192.044 99.4285 190.61 100.263 189.899 102.244C189.402 103.628 189.114 105.094 188.814 106.54C188.062 110.163 187.356 113.796 186.619 117.483Z" fill="#061028"/>
<path fill-rule="evenodd" clip-rule="evenodd" d="M89.8068 106.962H106.064L97.2731 128.529C96.0204 131.593 93.0415 133.595 89.734 133.595H73.4763L82.2674 112.096C83.5207 109.032 86.4996 106.962 89.8068 106.962Z" fill="#A9CAFF"/>
<path fill-rule="evenodd" clip-rule="evenodd" d="M78.2502 121.765H87.2794C90.5866 121.765 91.6404 121.634 94.3968 119.225L106.043 106.811H89.8073C86.4997 106.811 83.5204 108.879 82.2678 111.943L78.2502 121.765Z" fill="#0408E0"/>
<path fill-rule="evenodd" clip-rule="evenodd" d="M84.3757 93.8015H100.633L91.8419 115.245C90.5889 118.309 87.61 120.136 84.3028 120.136H68.0452L76.8362 98.812C78.0892 95.7478 81.0685 93.8015 84.3757 93.8015Z" fill="#0384FF"/>
<path fill-rule="evenodd" clip-rule="evenodd" d="M72.7332 108.681H81.861C85.1682 108.681 86.2224 108.237 88.9784 105.828L100.595 93.7268H84.3758C81.0686 93.7268 78.0893 95.6682 76.8363 98.732L72.7332 108.681Z" fill="#0408E0"/>
<path fill-rule="evenodd" clip-rule="evenodd" d="M78.9443 80.3438H95.2016L86.4105 101.964C85.1579 105.028 82.1786 106.964 78.8714 106.964H62.6138L71.4048 85.5311C72.6581 82.467 75.6371 80.3438 78.9443 80.3438Z" fill="#004EFF"/>
</svg>
