<svg width="283" height="213" viewBox="0 0 283 213" fill="none" xmlns="http://www.w3.org/2000/svg">
<path d="M97.9269 83.6364C95.9943 83.6318 94.424 85.1816 94.4194 87.0982C94.4145 89.0148 95.9774 90.5724 97.9095 90.577C99.8421 90.5819 101.413 89.0318 101.417 87.1155C101.422 85.1989 99.8594 83.6413 97.9269 83.6364ZM85.3539 99.4816C86.5404 97.7906 87.1778 95.7254 87.1831 93.5269C87.1937 89.3519 84.229 83.485 76.4808 83.485H66.3197C65.1166 83.485 64.1406 83.9442 63.749 84.3075C63.1147 84.8611 62.617 85.6789 62.6145 86.7289C62.612 87.6836 62.617 114.837 62.6145 115.792C62.6088 118.034 64.4865 118.983 66.2726 118.983C69.5653 118.992 76.9566 118.978 78.6068 118.983C85.4795 118.999 89.4783 113.354 89.4906 108.339C89.5016 103.972 87.6423 101.277 85.3539 99.4816ZM101.385 95.9617C101.385 93.7211 99.6617 92.5757 97.8558 92.5757C96.1397 92.5757 94.435 93.7816 94.435 95.8351V115.556C94.435 119.976 101.385 120.162 101.385 115.558V95.9617ZM119.925 112.022C117.768 112.021 116.029 110.231 116.035 108.077C116.037 107.073 116.018 103.268 116.035 99.0114C116.89 99.0135 117.562 99.0107 117.882 99.0114C122.332 99.0224 122.216 92.3648 118.01 92.3546C117.75 92.3539 116.993 92.357 116.035 92.3546C116.043 90.1801 116.033 87.5938 116.035 87.0377C116.04 84.9159 114.275 83.682 112.531 83.682C110.824 83.682 109.115 84.9637 109.11 87.1314C109.107 87.9168 109.11 90.4128 109.11 92.3546C108.735 92.3539 108.459 92.3549 108.32 92.3546C104.114 92.3443 103.964 99.0005 108.414 99.0114C108.568 99.0118 108.808 99.0107 109.11 99.0114C109.109 103.48 109.111 107.454 109.11 108.283C109.093 115.1 114.898 118.972 119.989 118.972C122.097 118.972 123.479 117.353 123.479 115.486C123.479 113.807 122.303 112.022 119.925 112.022ZM181.771 92.3178C174.345 92.2997 168.311 98.2555 168.293 105.621C168.274 112.986 174.279 118.971 181.704 118.989C189.129 119.008 195.164 113.052 195.182 105.687C195.2 98.3216 189.196 92.3362 181.771 92.3178ZM216.525 90.577C218.457 90.5819 220.028 89.0318 220.033 87.1152C220.037 85.1989 218.475 83.6413 216.542 83.6364C214.61 83.6318 213.039 85.1816 213.034 87.0982C213.03 89.0148 214.592 90.5724 216.525 90.577ZM152.707 92.6223C149.64 92.6223 146.922 93.6553 145.02 95.3643C142.983 93.5679 140.369 92.6223 138.092 92.6223C136.202 92.6223 134.445 93.015 132.929 93.7154C132.275 93.0094 131.333 92.6457 130.382 92.6489C128.623 92.6552 126.831 93.9004 126.831 96.1004C126.831 97.0909 126.834 114.647 126.831 115.638C126.82 119.965 133.812 120.119 133.812 115.54V103.126C133.812 100.854 135.461 99.3146 137.679 99.3146C139.896 99.3146 141.552 100.962 141.547 103.197C141.541 105.432 141.552 113.574 141.547 115.632C141.536 119.96 148.475 120.114 148.486 115.535C148.494 112.28 148.486 103.552 148.486 102.697C148.486 100.703 150.219 99.3146 152.294 99.3146C154.512 99.3146 156.175 100.962 156.169 103.197C156.164 105.432 156.16 113.574 156.155 115.632C156.144 119.96 163.091 120.114 163.102 115.535C163.111 112.28 163.098 104.892 163.102 103.152C163.119 96.3824 157.249 92.6223 152.707 92.6223ZM203.638 83.6237C201.696 83.6191 200.117 85.177 200.112 87.1038C200.107 89.0304 201.678 90.5964 203.62 90.601C205.563 90.6056 207.142 89.0477 207.146 87.1212C207.151 85.1943 205.58 83.6286 203.638 83.6237ZM219.995 95.9617C220.001 93.7211 218.277 92.5757 216.471 92.5757C214.755 92.5757 213.09 93.7816 213.085 95.8351C213.082 96.7899 213.085 114.601 213.085 115.556C213.085 119.976 219.995 120.162 219.995 115.558C219.995 114.319 219.992 97.2002 219.995 95.9617ZM200.209 96.0997V117.81C200.209 119.802 198.819 121.568 196.461 121.568C194.01 121.568 192.718 123.301 192.718 125.007C192.718 126.871 194.253 128.462 196.483 128.462C202.198 128.462 207.096 124.428 207.096 117.871V96.1199C207.096 91.4893 200.209 91.4628 200.209 96.0997ZM181.721 112.189C178.083 112.18 175.14 109.247 175.149 105.638C175.158 102.029 178.115 99.1101 181.754 99.119C185.392 99.1278 188.335 102.061 188.326 105.67C188.317 109.279 185.36 112.197 181.721 112.189ZM69.3251 90.1118C72.0108 90.1118 75.0905 90.1104 76.5232 90.1104C79.1226 90.1104 80.1552 92.3018 80.152 93.5088C80.146 95.9816 78.1356 97.1242 76.5784 97.1242C76.1249 97.1242 71.7147 97.1252 69.3251 97.1252C69.3318 94.4473 69.3205 91.9608 69.3251 90.1118ZM78.5622 112.443C77.0606 112.439 72.6086 112.452 69.3251 112.443C69.3308 110.206 69.317 107.053 69.3251 103.733C71.6273 103.737 77.9637 103.733 78.5665 103.733C80.7845 103.733 83.0007 105.351 82.9937 108.229C82.988 110.523 81.0792 112.449 78.5622 112.443Z" fill="#273440"/>
<path fill-rule="evenodd" clip-rule="evenodd" d="M217.001 128.029H205.411C207.162 126.501 208.497 124.517 209.229 122.265H217.104V122.268C218.683 122.297 219.953 123.576 219.953 125.149C219.953 126.739 218.653 128.029 217.049 128.029C217.033 128.029 217.017 128.029 217.001 128.029ZM189.874 124.995C189.874 126.096 190.161 127.13 190.662 128.029H167.759L172.062 122.265H190.504C190.1 123.09 189.874 124.016 189.874 124.995Z" fill="#E84939"/>
<path fill-rule="evenodd" clip-rule="evenodd" d="M65.5686 128.029H95.6922H93.5984L97.901 122.265H99.9949H65.4621V122.268C63.8862 122.3 62.6183 123.578 62.6183 125.149C62.6183 126.72 63.8862 127.997 65.4621 128.029L65.4759 128.029C65.4912 128.029 65.5067 128.029 65.5223 128.029C65.5378 128.029 65.5531 128.029 65.5686 128.029Z" fill="#3B9FE4"/>
<path fill-rule="evenodd" clip-rule="evenodd" d="M130.685 128.029H97.7938L102.096 122.265H134.984H132.887L128.584 128.029H130.685Z" fill="#2ACC70"/>
<path fill-rule="evenodd" clip-rule="evenodd" d="M132.779 128.029H167.759L172.062 122.265H137.082L132.779 128.029Z" fill="#F1C540"/>
</svg>
