<svg width="283" height="213" viewBox="0 0 283 213" fill="none" xmlns="http://www.w3.org/2000/svg">
<path d="M146.659 103.994C146.261 104.218 145.769 104.33 145.201 104.33C145.012 104.33 144.576 104.312 143.857 104.237V106.273C144.481 106.441 145.106 106.497 145.75 106.497C146.735 106.497 147.549 106.236 148.212 105.731C148.874 105.227 149.461 104.442 149.954 103.359L155.521 90.8062L152.889 90.8437L149.518 99.0627L146.242 90.8437H143.61L148.174 101.603L147.701 102.668C147.397 103.321 147.038 103.77 146.659 103.994Z" fill="#141927"/>
<path d="M159.668 100.575C160.084 101.154 160.652 101.603 161.334 101.92C162.035 102.238 162.792 102.406 163.644 102.406C165.253 102.406 166.579 101.864 167.62 100.725C168.662 99.6039 169.211 98.2027 169.211 96.5217C169.211 94.8407 168.681 93.4395 167.601 92.3188C166.522 91.1981 165.178 90.6378 163.568 90.6378L163.663 90.619C162.015 90.619 160.728 91.1606 159.819 92.2441V84.9215H157.376V102.125H159.649V100.575H159.668ZM160.709 93.813C161.391 93.178 162.205 92.842 163.152 92.842C164.155 92.842 164.988 93.178 165.67 93.8693C166.352 94.5605 166.674 95.4381 166.674 96.5029C166.674 97.5865 166.352 98.4829 165.67 99.1741C164.988 99.8653 164.212 100.239 163.209 100.239H163.17C162.224 100.239 161.409 99.94 160.728 99.3237C160.046 98.7071 159.705 97.792 159.705 96.5776C159.705 95.3635 160.027 94.4484 160.709 93.813Z" fill="#141927"/>
<path d="M137.911 117.667H137.892C136.472 117.667 135.336 118.134 134.465 119.049V117.929H132.193V129.249H134.635V122.487C134.635 121.721 134.863 121.104 135.355 120.619C135.847 120.133 136.472 119.89 137.248 119.89C137.987 119.89 138.593 120.152 139.066 120.619C139.54 121.104 139.767 121.739 139.767 122.524V129.249H142.209V122.188C142.209 120.843 141.831 119.759 141.073 118.938C140.316 118.116 139.236 117.667 137.911 117.667Z" fill="#141927"/>
<path d="M150.333 117.648C148.685 117.648 147.284 118.227 146.148 119.366C145.012 120.506 144.425 121.907 144.425 123.569C144.425 125.251 145.012 126.652 146.167 127.772C147.322 128.893 148.799 129.472 150.56 129.472C152.302 129.472 153.817 128.875 155.123 127.66L153.968 126.017C152.946 126.913 151.828 127.343 150.636 127.343C149.632 127.343 148.799 127.081 148.117 126.558C147.436 126.035 147.019 125.288 146.867 124.354H155.388C155.597 123.794 155.616 122.841 155.616 122.841C155.616 121.346 155.104 120.114 154.101 119.124C153.116 118.134 151.848 117.648 150.333 117.648ZM146.924 122.486C147.114 121.645 147.511 120.973 148.117 120.469C148.723 119.964 149.405 119.721 150.219 119.703C151.033 119.703 151.715 119.964 152.283 120.469C152.832 120.973 153.116 121.645 153.135 122.486H146.924Z" fill="#141927"/>
<path d="M177.58 102.424C179.322 102.424 180.837 101.827 182.143 100.612L180.988 98.9689C179.966 99.8653 178.849 100.295 177.656 100.295C176.652 100.295 175.819 100.033 175.137 99.5105C174.456 98.9873 174.039 98.2402 173.888 97.3063H182.409C182.636 96.7084 182.636 95.7933 182.636 95.7933C182.636 94.2987 182.125 93.0659 181.121 92.0761C180.117 91.0859 178.868 90.6002 177.353 90.6002C175.706 90.6002 174.304 91.1793 173.168 92.3187C172.032 93.4582 171.445 94.8594 171.445 96.5216C171.445 98.203 172.032 99.6039 173.187 100.725C174.342 101.864 175.819 102.424 177.58 102.424ZM175.119 93.4394C175.725 92.9353 176.406 92.6923 177.22 92.6739C178.035 92.6739 178.716 92.9353 179.284 93.4394C179.833 93.9439 180.117 94.6163 180.136 95.4568H173.926C174.115 94.5976 174.513 93.9439 175.119 93.4394Z" fill="#141927"/>
<path d="M163.776 127.269C163.038 127.269 162.47 127.138 162.11 126.839C161.732 126.54 161.561 126.036 161.561 125.326V120.021H164.95V117.929H161.561V114.977H159.099V117.929H157.244V120.021H159.099V125.531C159.099 126.839 159.478 127.829 160.217 128.464C160.955 129.099 161.978 129.435 163.303 129.435C163.89 129.435 164.553 129.342 165.329 129.174V127.138C164.648 127.212 164.174 127.269 163.814 127.269H163.776Z" fill="#141927"/>
<path d="M180.269 125.195L176.747 117.667H175.914L172.449 125.289L169.438 117.929H166.844L171.918 129.436H172.752L176.33 121.945L179.909 129.436H180.761L185.817 117.929H183.223L180.269 125.195Z" fill="#141927"/>
<path d="M192.539 117.667C190.835 117.667 189.414 118.246 188.259 119.367C187.104 120.488 186.518 121.889 186.518 123.551C186.518 125.214 187.104 126.596 188.259 127.735C189.414 128.856 190.835 129.436 192.539 129.454C194.205 129.454 195.625 128.875 196.818 127.735C198.011 126.596 198.579 125.195 198.579 123.533C198.579 121.889 197.973 120.488 196.78 119.348C195.625 118.228 194.205 117.686 192.539 117.667ZM195.019 126.148C194.338 126.839 193.504 127.175 192.501 127.175C191.479 127.175 190.645 126.839 189.963 126.148C189.282 125.457 188.96 124.579 188.96 123.551C188.96 122.486 189.282 121.627 189.963 120.936C190.645 120.245 191.479 119.909 192.501 119.872H192.52C193.523 119.89 194.357 120.245 195.038 120.918C195.72 121.609 196.042 122.487 196.042 123.533C196.042 124.579 195.682 125.457 195.019 126.148Z" fill="#141927"/>
<path d="M203.105 119.385V117.909H200.832V129.229H203.275V123.177C203.275 122.187 203.597 121.44 204.222 120.88C204.847 120.338 205.642 120.057 206.589 120.057H207.327V117.928C207.062 117.853 206.759 117.816 206.418 117.816C205.036 117.816 203.919 118.339 203.105 119.385Z" fill="#141927"/>
<path d="M187.332 96.1477C187.332 95.1579 187.653 94.4108 188.278 93.8501C188.903 93.3085 189.698 93.0283 190.645 93.0283H191.384V90.8988C191.118 90.8241 190.816 90.787 190.475 90.787C189.073 90.787 187.956 91.3286 187.142 92.3746V90.8988H184.87V102.2H187.312V96.1477H187.332Z" fill="#141927"/>
<path d="M212.042 111.969H209.599V129.229H212.042V111.969Z" fill="#141927"/>
<path d="M214.996 122.878L219.597 117.928H216.586L212.118 122.86L217.097 129.23H220.032L214.996 122.878Z" fill="#141927"/>
<path d="M142.191 90.8804H139.161L134.711 95.8304L139.691 102.2H142.626L137.589 95.8491L142.191 90.8804Z" fill="#141927"/>
<path d="M134.636 84.9398H132.193V102.2H134.636V84.9398Z" fill="#141927"/>
<path d="M87.4159 106.541L118.455 124.296C119.546 124.915 120.899 124.128 120.899 122.89V90.1729C120.899 88.9168 119.546 88.1481 118.455 88.7668L87.4159 106.541Z" fill="#31CB9E"/>
<path d="M117.766 80.9032L96.5642 65.3198C95.5794 64.5946 94.1701 65.1153 93.9189 66.2682L86.176 100.95L117.573 83.5811C118.615 83.0045 118.712 81.61 117.766 80.9032Z" fill="#31CB9E"/>
<path d="M96.5444 147.749L117.764 132.162C118.71 131.455 118.613 130.06 117.59 129.483L86.176 112.111L93.9185 146.8C94.1503 147.953 95.5791 148.455 96.5444 147.749Z" fill="#31CB9E"/>
<path d="M79.3518 105.919L87.377 68.2005C87.6929 66.7179 86.0211 65.6481 84.8321 66.5675L64.2856 82.406C63.2268 83.2129 62.6138 84.4889 62.6138 85.8211V125.998C62.6138 127.331 63.2268 128.607 64.2856 129.414L84.8321 145.252C86.0211 146.171 87.6929 145.102 87.377 143.619L79.3518 105.919Z" fill="#31CB9E"/>
</svg>
