<svg width="283" height="213" viewBox="0 0 283 213" fill="none" xmlns="http://www.w3.org/2000/svg">
<path fill-rule="evenodd" clip-rule="evenodd" d="M91.4062 77.9712C75.5048 77.9712 62.6138 90.8558 62.6138 106.751C62.6138 122.185 74.77 134.782 90.0343 135.497C90.49 135.518 90.9463 135.531 91.4062 135.531C98.7776 135.531 105.5 132.76 110.594 128.207C107.219 130.444 103.273 131.731 99.0564 131.731C92.1997 131.731 86.0593 128.331 81.9296 122.97C78.7458 119.213 76.6838 113.66 76.5434 107.429V106.073C76.6838 99.8421 78.7458 94.2886 81.9289 90.5329C86.0593 85.1714 92.1997 81.7712 99.0564 81.7712C103.274 81.7712 107.221 83.0585 110.596 85.2974C105.528 80.7648 98.8448 77.9998 91.5148 77.9726C91.4784 77.9726 91.4426 77.9712 91.4062 77.9712Z" fill="url(#paint0_linear_48_438)"/>
<path fill-rule="evenodd" clip-rule="evenodd" d="M81.9288 90.5329C84.571 87.415 87.9833 85.5348 91.7111 85.5348C100.093 85.5348 106.888 95.034 106.888 106.751C106.888 118.467 100.093 127.967 91.7111 127.967C87.9833 127.967 84.571 126.087 81.9295 122.969C86.0592 128.331 92.1996 131.731 99.0563 131.731C103.273 131.731 107.219 130.444 110.594 128.207C116.487 122.936 120.198 115.277 120.198 106.751C120.198 98.2256 116.488 90.5665 110.596 85.2974C107.221 83.0585 103.274 81.7712 99.0563 81.7712C92.1996 81.7712 86.0592 85.1711 81.9288 90.5329Z" fill="url(#paint1_linear_48_438)"/>
<path fill-rule="evenodd" clip-rule="evenodd" d="M164.788 102.195C169.525 102.195 173.38 106.342 173.38 111.437C173.38 116.533 169.525 120.679 164.788 120.679C162.239 120.679 160.042 119.478 158.555 117.576V125.938H156.525V102.618H158.555V105.299C160.042 103.397 162.239 102.195 164.788 102.195ZM142.175 95.3864C148.959 95.3864 154.477 101.17 154.477 108.278C154.477 115.386 148.959 121.169 142.175 121.169C135.391 121.169 129.873 115.386 129.873 108.278C129.873 101.17 135.391 95.3864 142.175 95.3864ZM201.786 102.266C202.314 102.244 203.05 102.338 203.613 102.495C203.495 103.081 203.219 103.817 203.104 104.395C202.9 104.356 202.706 104.313 202.51 104.281C201.3 104.089 200.244 104.428 199.322 105.217C198.538 105.888 197.992 106.728 197.6 107.674C197.178 108.695 196.975 109.742 196.975 111.032C196.976 114.175 196.975 116.94 196.975 120.083V120.201H196.973H194.942V102.761V102.728H196.973V102.761H196.975V105.992C196.981 105.993 196.987 105.994 196.994 105.995C197.008 105.964 197.023 105.933 197.037 105.901C197.611 104.557 198.51 103.502 199.81 102.809C200.426 102.482 201.087 102.297 201.786 102.266ZM183.792 102.223C188.85 102.223 192.383 106.024 192.383 111.465C192.383 111.684 192.374 111.9 192.36 112.115H191.143H177.236C177.537 115.801 180.36 118.702 183.792 118.702C186.438 118.702 188.719 116.974 189.765 114.495L191.514 115.512C190.117 118.585 187.18 120.706 183.792 120.706C179.054 120.706 175.2 116.561 175.2 111.465C175.2 106.369 179.054 102.223 183.792 102.223ZM218.003 102.618H220.032V120.202H218.003V117.576C216.516 119.478 214.319 120.679 211.77 120.679C207.033 120.679 203.178 116.533 203.178 111.437C203.178 106.342 207.033 102.195 211.77 102.195C214.319 102.195 216.516 103.397 218.003 105.299V102.618ZM164.788 118.674C168.419 118.674 171.373 115.428 171.373 111.437C171.373 107.447 168.419 104.201 164.788 104.201C161.156 104.201 158.202 107.447 158.202 111.437C158.202 115.428 161.156 118.674 164.788 118.674ZM142.175 119.233C147.891 119.233 152.541 114.319 152.541 108.278C152.541 102.237 147.891 97.3231 142.175 97.3231C136.459 97.3231 131.81 102.237 131.81 108.278C131.81 114.319 136.459 119.233 142.175 119.233ZM183.792 104.228C180.508 104.228 177.786 106.886 177.293 110.345H190.308C189.888 106.645 187.38 104.228 183.792 104.228ZM211.77 118.674C215.401 118.674 218.356 115.428 218.356 111.437C218.356 107.447 215.401 104.201 211.77 104.201C208.139 104.201 205.184 107.447 205.184 111.437C205.184 115.428 208.139 118.674 211.77 118.674Z" fill="black"/>
<defs>
<linearGradient id="paint0_linear_48_438" x1="86.6051" y1="77.9712" x2="86.6051" y2="135.531" gradientUnits="userSpaceOnUse">
<stop stop-color="#FF1B2D"/>
<stop offset="1" stop-color="#A70014"/>
</linearGradient>
<linearGradient id="paint1_linear_48_438" x1="101.064" y1="81.7712" x2="101.064" y2="131.731" gradientUnits="userSpaceOnUse">
<stop stop-color="#9E0101"/>
<stop offset="1" stop-color="#FF4B4B"/>
</linearGradient>
</defs>
</svg>
