<svg width="283" height="213" viewBox="0 0 283 213" fill="none" xmlns="http://www.w3.org/2000/svg">
<path d="M206.814 107.385H207.215C208.569 107.385 209.867 107.91 210.824 108.844L219.119 116.94C220.403 118.194 220.334 120.27 218.909 121.434C217.662 122.454 215.806 122.321 214.657 121.199L204.583 111.366C204.078 110.873 203.262 110.869 202.751 111.353L202.738 111.366L192.668 121.195C191.472 122.363 189.523 122.449 188.285 121.324C186.984 120.143 186.957 118.155 188.202 116.94L196.497 108.844C197.454 107.91 198.752 107.385 200.106 107.385H206.814ZM200.507 104.937H200.106C198.752 104.937 197.454 104.412 196.497 103.478L188.202 95.382C186.918 94.1276 186.988 92.0521 188.412 90.8876C189.659 89.868 191.515 90.0007 192.665 91.1228L202.738 100.956C203.245 101.45 204.065 101.453 204.575 100.963L204.583 100.956L214.653 91.1263C215.849 89.9586 217.799 89.8723 219.037 90.9976C220.336 92.1791 220.364 94.1665 219.119 95.3816L210.824 103.478C209.867 104.412 208.569 104.937 207.215 104.937H200.507V104.937Z" fill="#8E8C9A"/>
<path d="M120.749 118.047L110.999 93.633C110.172 91.5636 107.172 91.5636 106.345 93.633L96.5946 118.047C96.474 118.349 96.4811 118.68 96.6144 118.977C96.7482 119.274 96.9919 119.503 97.305 119.623C97.4507 119.678 97.6028 119.706 97.7564 119.706C97.9265 119.706 98.0942 119.672 98.2583 119.603C98.5625 119.472 98.7967 119.233 98.9177 118.931L108.672 94.516L118.426 118.931C118.547 119.233 118.781 119.472 119.085 119.603C119.249 119.672 119.417 119.706 119.587 119.706C119.741 119.706 119.893 119.678 120.039 119.623C120.352 119.503 120.596 119.274 120.729 118.977C120.863 118.68 120.87 118.349 120.749 118.047ZM132.435 95.0385H146.944C147.607 95.0385 148.187 94.551 148.232 93.9054C148.281 93.1968 147.704 92.605 146.988 92.605H132.429C130.375 92.605 128.709 94.2305 128.709 96.2356V118.446C128.709 119.093 129.209 119.659 129.87 119.703C130.596 119.75 131.203 119.187 131.203 118.489V107.371H146.943C147.606 107.371 148.186 106.884 148.231 106.239C148.279 105.53 147.702 104.938 146.987 104.938H131.203V96.2409C131.203 95.5769 131.754 95.0385 132.435 95.0385ZM176.057 117.272H161.504C160.823 117.272 160.272 116.734 160.272 116.069V107.371H176.014C176.677 107.371 177.257 106.884 177.302 106.238C177.35 105.53 176.773 104.939 176.058 104.939L160.272 104.938V96.2409C160.272 95.5769 160.823 95.0385 161.504 95.0385H176.013C176.676 95.0385 177.256 94.5514 177.3 93.9054C177.349 93.1968 176.773 92.605 176.057 92.605H161.498C159.444 92.605 157.779 94.2305 157.779 96.2356V116.075C157.779 118.08 159.444 119.705 161.498 119.705H176.013C176.676 119.705 177.256 119.218 177.3 118.572C177.349 117.864 176.773 117.272 176.057 117.272ZM88.6558 112.336C88.0859 111.962 87.3098 112.108 86.9249 112.663C84.7005 115.878 81.0031 117.797 77.0344 117.797C70.4578 117.797 65.1074 112.575 65.1074 106.155C65.1074 99.7363 70.4578 94.5139 77.0344 94.5139C81.0031 94.5139 84.7005 96.4326 86.9249 99.6471C87.3098 100.203 88.0859 100.349 88.6558 99.9747C88.9324 99.7918 89.1185 99.5159 89.1818 99.1975C89.2448 98.877 89.1769 98.5523 88.9904 98.2834C86.3019 94.3999 81.8319 92.0808 77.0344 92.0808C69.0824 92.0808 62.6138 98.3945 62.6138 106.155C62.6138 113.916 69.0824 120.23 77.0344 120.23C81.8319 120.23 86.3019 117.911 88.9904 114.027C89.1769 113.759 89.2448 113.433 89.1818 113.113C89.1185 112.795 88.9324 112.519 88.6558 112.336ZM202.751 111.353L192.668 121.195C191.472 122.363 189.523 122.449 188.285 121.324C186.984 120.143 186.957 118.156 188.203 116.94L196.497 108.844C197.454 107.91 198.752 107.385 200.106 107.385H206.814C206.814 107.385 203.262 110.869 202.751 111.353ZM204.575 100.963L214.653 91.1263C215.849 89.9586 217.799 89.8723 219.037 90.9976C220.336 92.1791 220.364 94.1665 219.119 95.382L210.824 103.478C209.867 104.412 208.569 104.937 207.215 104.937H200.507C200.507 104.937 204.065 101.453 204.575 100.963Z" fill="#1D1936"/>
</svg>
