<svg width="83" height="31" viewBox="0 0 83 31" fill="none" xmlns="http://www.w3.org/2000/svg">
<path d="M7.15077 0.743999H0V26.536H7.15077V0.743999Z" fill="white"/>
<path d="M8.44964 0.743999V6.2H16.6219V19.592C16.6219 25.544 19.9419 26.784 24.7943 26.784C27.8589 26.784 29.1358 26.288 29.1358 26.288V21.08C29.1358 21.08 28.3696 21.328 26.8373 21.328C24.5389 21.328 23.7727 20.584 23.7727 18.352V6.2H32.4558V0.743999H8.44964Z" fill="white"/>
<path d="M40.6401 8.68C40.7422 5.9024 42.4278 4.712 45.4924 4.712C48.3016 4.712 49.8339 5.9024 49.8339 7.936C49.8339 10.8128 45.6456 11.16 41.2019 12.2512C36.8093 13.3424 32.7231 15.5248 32.7231 20.336C32.7231 25.0976 36.2985 27.28 41.1508 27.28C47.9441 27.28 49.5785 21.576 49.5785 21.576H49.8339V26.536H56.9847V8.928C56.9847 2.232 51.877 0 45.4924 0C39.3631 0 33.8979 2.0832 33.4893 8.68H40.6401ZM49.8339 13.5408C49.8339 17.36 48.557 22.816 43.7047 22.816C41.4062 22.816 39.9761 21.576 39.9761 19.592C39.9761 17.3104 41.917 16.1696 44.2155 15.624C46.2585 15.128 48.6591 14.5824 49.8339 13.5408Z" fill="white"/>
<path d="M58.7544 26.536H72.2898C79.4406 26.536 82.7606 24.056 82.7606 19.096C82.7606 14.136 77.9083 13.144 77.9083 13.144V12.896C77.9083 12.896 81.9944 11.904 81.9944 7.688C81.9944 2.976 78.419 0.743999 71.5237 0.743999H58.7544V26.536ZM71.5237 15.624C74.0775 15.624 75.6098 16.616 75.6098 18.6C75.6098 20.584 74.3329 21.576 72.0344 21.576H65.9052V15.624H71.5237ZM65.9052 11.16V5.704H71.5237C73.8221 5.704 74.8437 6.696 74.8437 8.432C74.8437 10.168 73.5667 11.16 71.0129 11.16H65.9052Z" fill="white"/>
<path d="M30.6462 20.46H83V31H30.6462V20.46Z" fill="#75FB5E"/>
<path d="M42.943 29.081C42.528 29.081 42.1225 29.0283 41.7264 28.9229C41.3304 28.8175 41.0141 28.6842 40.7775 28.523L41.2355 27.6395C41.4656 27.7883 41.7404 27.9092 42.0598 28.0022C42.3856 28.089 42.7049 28.1324 43.0178 28.1324C43.7328 28.1324 44.09 27.9495 44.0893 27.5837C44.089 27.4101 43.9961 27.2892 43.8108 27.221C43.6319 27.1528 43.3413 27.0877 42.939 27.0257C42.5175 26.9637 42.1725 26.8924 41.9042 26.8118C41.6423 26.7312 41.4122 26.5917 41.2139 26.3933C41.0219 26.1887 40.9256 25.9066 40.9249 25.547C40.924 25.0758 41.1244 24.7007 41.526 24.4217C41.9341 24.1365 42.4829 23.9939 43.1724 23.9939C43.5236 23.9939 43.8748 24.0342 44.2261 24.1148C44.5774 24.1892 44.8649 24.2915 45.0886 24.4217L44.6307 25.3052C44.1961 25.0572 43.7074 24.9332 43.1647 24.9332C42.8135 24.9332 42.5455 24.9859 42.3605 25.0913C42.182 25.1905 42.0928 25.3238 42.0932 25.4912C42.0935 25.6772 42.1896 25.8105 42.3813 25.8911C42.5793 25.9655 42.8827 26.0368 43.2915 26.105C43.7002 26.167 44.0356 26.2383 44.2975 26.3189C44.5594 26.3995 44.7832 26.5359 44.9687 26.7281C45.1606 26.9203 45.2569 27.1931 45.2576 27.5465C45.2585 28.0115 45.0518 28.3835 44.6373 28.6625C44.2228 28.9415 43.6581 29.081 42.943 29.081Z" fill="black"/>
<path d="M49.5566 28.7462C49.4164 28.8578 49.2442 28.9415 49.04 28.9973C48.8422 29.0531 48.6315 29.081 48.4081 29.081C47.8462 29.081 47.4118 28.9384 47.1048 28.6532C46.7977 28.368 46.6437 27.9526 46.6426 27.407L46.6379 25.0169H45.7951L45.7933 24.0869H46.6361L46.6339 22.9523H47.831L47.8332 24.0869H49.2027L49.2045 25.0169H47.835L47.8397 27.3791C47.8401 27.6209 47.9012 27.8069 48.0227 27.9371C48.1443 28.0611 48.32 28.1231 48.5498 28.1231C48.818 28.1231 49.0413 28.0549 49.2198 27.9185L49.5566 28.7462Z" fill="black"/>
<path d="M55.675 24.0497L55.6847 29.0159H54.5451L54.5438 28.3835C54.3528 28.6067 54.1137 28.7803 53.8266 28.9043C53.5395 29.0221 53.23 29.081 52.898 29.081C52.2148 29.081 51.675 28.8981 51.2784 28.5323C50.8882 28.1603 50.6924 27.6116 50.691 26.8862L50.6854 24.0497H51.8825L51.8878 26.7281C51.8887 27.1745 51.9915 27.5093 52.1962 27.7325C52.4073 27.9495 52.7044 28.058 53.0875 28.058C53.5153 28.058 53.8534 27.9309 54.1019 27.6767C54.3568 27.4163 54.4838 27.0443 54.4828 26.5607L54.4779 24.0497H55.675Z" fill="black"/>
<path d="M62.4388 22.1153L62.4524 29.0159H61.3032L61.3019 28.3742C61.1045 28.6098 60.859 28.7865 60.5655 28.9043C60.2785 29.0221 59.9594 29.081 59.6082 29.081C59.1166 29.081 58.6726 28.9756 58.2764 28.7648C57.8865 28.554 57.5795 28.2564 57.3552 27.872C57.131 27.4814 57.0184 27.035 57.0174 26.5328C57.0164 26.0306 57.1273 25.5873 57.35 25.2029C57.5727 24.8185 57.8786 24.5209 58.2676 24.3101C58.6631 24.0993 59.1066 23.9939 59.5982 23.9939C59.9366 23.9939 60.2463 24.0497 60.5275 24.1613C60.8086 24.2729 61.0484 24.4403 61.2467 24.6635L61.2417 22.1153H62.4388ZM59.7499 28.0859C60.0372 28.0859 60.2957 28.0239 60.5253 27.8999C60.7548 27.7697 60.9365 27.5868 61.0701 27.3512C61.2037 27.1156 61.2702 26.8428 61.2696 26.5328C61.269 26.2228 61.2014 25.95 61.0668 25.7144C60.9323 25.4788 60.75 25.299 60.5199 25.175C60.2898 25.0448 60.0311 24.9797 59.7438 24.9797C59.4565 24.9797 59.198 25.0448 58.9684 25.175C58.7388 25.299 58.5572 25.4788 58.4236 25.7144C58.29 25.95 58.2235 26.2228 58.2241 26.5328C58.2247 26.8428 58.2923 27.1156 58.4268 27.3512C58.5614 27.5868 58.7437 27.7697 58.9738 27.8999C59.2039 28.0239 59.4626 28.0859 59.7499 28.0859Z" fill="black"/>
<path d="M64.2002 24.0497H65.3974L65.4071 29.0159H64.21L64.2002 24.0497ZM64.802 23.2313C64.5849 23.2313 64.4028 23.1662 64.2557 23.036C64.1086 22.8996 64.0348 22.7322 64.0344 22.5338C64.0341 22.3354 64.1072 22.1711 64.2538 22.0409C64.4003 21.9045 64.5822 21.8363 64.7992 21.8363C65.0163 21.8363 65.1984 21.9014 65.3455 22.0316C65.4926 22.1556 65.5663 22.3137 65.5667 22.5059C65.5671 22.7105 65.494 22.8841 65.3475 23.0267C65.2073 23.1631 65.0254 23.2313 64.802 23.2313Z" fill="black"/>
<path d="M69.4685 29.081C68.9513 29.081 68.485 28.9725 68.0696 28.7555C67.6542 28.5385 67.328 28.2378 67.091 27.8534C66.8604 27.4628 66.7446 27.0226 66.7436 26.5328C66.7426 26.043 66.8567 25.6059 67.0858 25.2215C67.3213 24.8371 67.6463 24.5364 68.0609 24.3194C68.4754 24.1024 68.9413 23.9939 69.4585 23.9939C69.982 23.9939 70.4515 24.1024 70.8669 24.3194C71.2823 24.5364 71.6053 24.8371 71.8359 25.2215C72.0729 25.6059 72.1919 26.043 72.1929 26.5328C72.1938 27.0226 72.0766 27.4628 71.8411 27.8534C71.612 28.2378 71.2902 28.5385 70.8756 28.7555C70.4611 28.9725 69.992 29.081 69.4685 29.081ZM69.4665 28.0859C69.907 28.0859 70.2707 27.9433 70.5574 27.6581C70.8442 27.3729 70.9871 26.9978 70.9862 26.5328C70.9853 26.0678 70.8409 25.6927 70.553 25.4075C70.2651 25.1223 69.9009 24.9797 69.4604 24.9797C69.0199 24.9797 68.6562 25.1223 68.3695 25.4075C68.0891 25.6927 67.9494 26.0678 67.9503 26.5328C67.9512 26.9978 68.0924 27.3729 68.3739 27.6581C68.6618 27.9433 69.026 28.0859 69.4665 28.0859Z" fill="black"/>
</svg>
