<svg width="206" height="280" viewBox="0 0 206 280" fill="none" xmlns="http://www.w3.org/2000/svg">
<path d="M136.361 113.854C132.156 124.352 130.259 136.249 130.672 149.547C131.085 162.704 133.598 174.112 138.212 183.77C142.546 193.429 141.842 199.798 136.102 202.877C129.941 206.096 123.644 203.017 117.21 193.639C112.735 187.34 109.099 180.621 106.303 173.482C103.648 166.344 101.552 158.925 100.017 151.227C97.0856 136.109 98.4235 121.272 104.03 106.715C107.955 96.7767 115.236 92.9274 125.873 95.167C136.929 97.5465 140.425 103.775 136.361 113.854ZM111.817 74.5908C108.738 72.9111 105.029 73.1211 100.688 75.2207C96.2079 77.4603 93.3375 79.21 92.077 80.4697C86.6154 85.3688 81.5037 90.1279 76.7421 94.7471C71.9804 99.3662 67.5686 104.125 63.5067 109.024C59.4448 113.784 55.8728 118.753 52.7905 123.932C49.7083 128.971 47.1159 134.36 45.0131 140.099C47.5353 135.2 52.7859 132.33 60.7649 131.49C70.5635 130.65 76.5088 137.229 78.6007 151.227C80.9728 164.944 86.496 175.442 95.1704 182.721C103.425 189.719 105.451 196.438 101.248 202.877C97.1854 209.316 91.0267 209.036 82.7721 202.037C77.315 198.678 68.9911 190.349 57.8005 177.052C46.6098 163.754 41.9969 152.486 43.9616 143.248C42.9801 146.327 42.0681 150.247 41.2256 155.006C40.5231 159.765 39.8902 165.364 39.3268 171.803C38.1999 184.68 38.1941 195.248 39.3094 203.507C40.4243 212.465 45.2475 223.103 53.7792 235.421C62.3108 247.739 71.8968 251.798 82.5372 247.599C97.9354 245.499 114.527 236.331 132.313 220.094C149.819 203.997 162.288 182.161 169.722 154.586C175.467 142.968 174.216 127.501 165.968 108.185C161.774 98.5264 157.65 90.1279 153.594 82.9893C149.679 75.7106 145.693 69.6217 141.636 64.7227C141.636 64.7227 141.076 66.1924 139.954 69.1318C139.674 69.8317 139.464 70.4616 139.323 71.0215C139.183 71.4414 139.043 71.7913 138.903 72.0713C138.763 72.4912 138.623 72.8411 138.482 73.1211C131.619 82.4993 122.73 82.9893 111.817 74.5908ZM6.33815 216.944C5.49999 213.865 4.80158 211.205 4.24291 208.966C3.68432 206.586 3.26555 204.487 2.9866 202.667C2.28896 198.608 1.87107 194.898 1.73294 191.539C1.59488 188.04 1.52666 184.82 1.52828 181.881C1.24833 181.881 1.03833 181.951 0.898277 182.091C1.17999 178.871 1.60198 175.092 2.16426 170.753C2.58664 166.274 3.14934 161.165 3.85235 155.426C5.25823 144.228 8.34403 132.61 13.1097 120.572C16.6139 111.754 20.6078 103.355 25.0913 95.377C29.7149 87.2585 35.1082 79.4199 41.2712 71.8613C47.0142 64.4427 54.2968 57.304 63.1189 50.4453C71.8011 43.5866 81.6017 39.1074 92.5208 37.0078L75.9386 28.3994C63.9032 24.0602 55.2282 17.9714 49.9135 10.1328C47.2561 6.21355 48.7272 3.69402 54.3268 2.57423C60.0664 1.31446 69.8642 2.01433 83.7202 4.67384C101.215 8.03321 117.099 14.0521 131.371 22.7305C145.784 31.2689 158.866 41.9769 170.616 54.8545C193.978 80.3298 204.389 112.524 201.848 151.437C200.86 165.434 196.163 180.271 187.756 195.948C179.629 211.485 169.193 225.693 156.448 238.57C144.124 251.308 130.331 261.596 115.069 269.435C107.508 273.354 100.018 276.013 92.5989 277.413C85.3195 278.813 78.0407 279.163 70.7624 278.463C37.5905 274.964 16.1158 254.457 6.33815 216.944Z" fill="url(#paint0_linear_177_204)"/>
<defs>
<linearGradient id="paint0_linear_177_204" x1="170.521" y1="99.8252" x2="212.047" y2="181.21" gradientUnits="userSpaceOnUse">
<stop stop-color="#5BDC41"/>
<stop offset="1" stop-color="#75FB5E"/>
</linearGradient>
</defs>
</svg>
